<?xml version="1.0" encoding="UTF-8" standalone="no"?>
<svg width="887px" height="825px" viewBox="0 0 887 825" version="1.1" xmlns="http://www.w3.org/2000/svg" xmlns:xlink="http://www.w3.org/1999/xlink">
    <!-- Generator: Sketch 3.8.3 (29802) - http://www.bohemiancoding.com/sketch -->
    <title>fp-lite</title>
    <desc>Created with Sketch.</desc>
    <defs></defs>
    <g id="Page-1" stroke="none" stroke-width="1" fill="none" fill-rule="evenodd" opacity="0.0633745336">
        <g id="Artboard-51" stroke="#979797" fill="#B8BABE">
            <g id="fp-copy" transform="translate(-2.000000, -31.000000)">
                <g id="fp-lite">
                    <g id="curve-6" transform="translate(182.874404, 0.243606)">
                        <path d="M406.130437,27.970691 C385.043412,19.8859476 363.604937,13.4500663 342.390113,8.87580357 C142.542631,-34.2924713 3.69841995,94.3294142 2.31391835,95.6378661 C0.492766234,97.3718308 0.00286566598,100.095113 1.13176698,102.350331 C1.91986789,103.935366 3.38956959,105.031061 5.05097152,105.403385 C5.74322232,105.552315 6.47807318,105.57359 7.21292403,105.445936 L405.012185,38.9701973 C407.568188,38.5340466 409.517141,36.4596717 409.762091,33.895957 C410.038991,31.3216045 408.537339,28.8961814 406.130437,27.970691 L406.130437,27.970691 Z" id="Shape"></path>
                    </g>
                    <g id="curve-5" transform="translate(18.475515, 127.726356)">
                        <path d="M0.572615459,234.962288 C0.572615459,234.962288 -0.162235393,86.2987488 450.684737,9.79154502 C450.684737,9.79154502 541.987293,22.1526922 595.588806,0.0579394191 C595.588806,0.0579394191 804.424898,2.18550348 840.347389,80.2883803 C840.347389,80.2883803 847.919548,99.5109216 741.291625,58.8850858 C741.291625,58.8850858 689.468664,63.3210569 736.041168,83.149954 C736.041168,83.149954 890.849748,136.126299 867.355821,199.442606 C867.355821,199.442606 902.330461,206.64441 663.599784,110.489152 C663.599784,110.489152 466.287006,19.0145352 297.068959,95.7983223 C297.068959,95.7983223 168.11861,140.232498 100.331281,182.251888 C100.341931,182.262526 20.6585388,249.078675 0.572615459,234.962288 L0.572615459,234.962288 Z" id="Shape"></path>
                    </g>
                    <g id="curve-4" transform="translate(0.006421, 256.355418)">
                        <path d="M12.0766008,365.353513 C12.0766008,365.353513 -104.338684,207.349968 406.968409,5.15691709 C406.968409,5.15691709 590.106021,-27.5756561 765.767325,82.664076 C765.767325,82.664076 930.086365,200.222628 846.686119,233.008391 C846.686119,233.008391 685.625982,28.2303494 427.160832,56.4205732 C427.160832,56.4099354 77.1907763,182.074507 12.0766008,365.353513 L12.0766008,365.353513 Z" id="Shape"></path>
                    </g>
                    <g id="curve-3" transform="translate(325.713039, 531.372662)">
                        <path d="M0.289535243,403.698656 C0.289535243,403.698656 202.432153,345.433502 275.151106,186.376271 C275.151106,186.376271 322.866408,83.8101751 271.658533,50.9065671 C271.658533,50.9065671 189.741807,16.8334935 258.819356,0.797939951 C258.819356,0.797939951 379.749716,-2.20500982 331.508544,178.526977 C331.518466,178.526977 199.70358,475.888379 0.289535243,403.698656 L0.289535243,403.698656 Z" id="Shape"></path>
                    </g>
                    <g id="curve-2" transform="translate(43.951791, 378.773571)">
                        <path d="M433.744346,418.176714 C433.744346,418.176714 187.947867,666.730098 8.71808802,438.412441 C8.71808802,438.412441 -88.3485607,143.791983 392.862433,6.41192458 C392.862433,6.41192458 599.292014,-47.5734764 806.426253,171.429881 C806.426253,171.429881 882.447114,286.685545 778.874123,417.30863 C778.874123,417.30863 695.971101,522.205948 742.772141,385.79955 C742.772141,385.79955 802.750287,278.086827 739.307572,182.51554 C739.307572,182.51554 681.314213,121.644127 710.216938,197.30815 C710.216938,197.30815 799.555837,322.664081 609.5213,522.944992 C609.5213,522.944992 550.036415,598.468245 410.948657,633.062541 C410.948657,633.062541 332.602424,646.271485 479.570609,555.204847 C479.570609,555.204847 734.63334,403.442758 658.048753,169.283134 C658.048753,169.283134 579.127049,5.73153492 319.965556,76.855717 C319.965556,76.855717 39.0771064,188.556931 60.627899,397.917525 C60.6161547,397.917525 113.46551,562.302015 410.514118,395.923279 C410.514118,395.923279 483.75158,366.490561 433.744346,418.176714 Z" id="Shape"></path>
                    </g>
                    <g id="curve-1" transform="translate(169.620528, 504.659558)">
                        <path d="M151.073291,168.387494 C62.7314384,205.970913 96.886028,156.675253 96.886028,156.675253 C113.659797,115.347321 204.515053,84.1891457 204.515053,84.1891457 C349.727971,54.9883289 332.304551,18.0006276 332.304551,18.0006276 C296.190359,-23.0081697 208.508807,20.5749802 208.508807,20.5749802 C-89.2868379,167.270522 19.5988884,278.712328 19.5988884,278.712328 C106.88639,352.49625 315.253881,229.033707 315.253881,229.033707 C451.94679,127.431885 370.239895,86.774136 370.239895,86.774136 C306.062921,48.3609668 151.073291,168.387494 151.073291,168.387494 Z M271.546231,199.290362 C271.546231,199.290362 151.690992,274.010412 60.2712856,244.501098 C60.2712856,244.501098 31.335202,224.576461 64.3076402,225.842361 C64.3076402,225.842361 198.529746,222.853134 241.140445,173.802144 C241.140445,173.802144 290.194402,112.443196 322.95384,119.517347 C322.96449,119.527985 386.300114,139.080299 271.546231,199.290362 L271.546231,199.290362 Z" id="Shape"></path>
                    </g>
                </g>
            </g>
        </g>
    </g>
</svg>