<?xml version="1.0" encoding="UTF-8" standalone="no"?>
<svg width="956px" height="1030px" viewBox="0 0 956 1030" version="1.1" xmlns="http://www.w3.org/2000/svg" xmlns:xlink="http://www.w3.org/1999/xlink">
    <!-- Generator: Sketch 3.8.3 (29802) - http://www.bohemiancoding.com/sketch -->
    <title>fp copy</title>
    <desc>Created with Sketch.</desc>
    <defs></defs>
    <g id="Page-1" stroke="none" stroke-width="1" fill="none" fill-rule="evenodd">
        <g id="Artboard-54" transform="translate(-424.000000, -52.000000)" fill="#3A3D42">
            <g id="fp-copy" transform="translate(424.000000, 52.000000)">
                <g id="Group">
                    <g id="curve-6" transform="translate(196.801065, 0.247693)">
                        <path d="M436.637854,28.6159923 C413.950083,20.3956077 390.884182,13.8517489 368.05891,9.20074186 C153.040719,-34.6917854 3.65664383,96.0880438 2.16704271,97.4184482 C0.207644327,99.1815044 -0.319445297,101.950476 0.895152533,104.243531 C1.74307932,105.855159 3.32434819,106.969237 5.11186953,107.347807 C5.85667009,107.499236 6.64730452,107.520868 7.43793896,107.391073 L435.434714,39.8000419 C438.184747,39.3565738 440.281647,37.2473962 440.545192,34.6406689 C440.843112,32.0231254 439.227468,29.55701 436.637854,28.6159923 L436.637854,28.6159923 Z" id="Shape"></path>
                    </g>
                    <g id="curve-5" transform="translate(19.728143, 130.043240)">
                        <path d="M0.48783109,238.90641 C0.48783109,238.90641 -0.302803347,87.74868 484.768611,9.95788254 C484.768611,9.95788254 583.002076,22.5264179 640.672556,0.0609721322 C640.672556,0.0609721322 865.361696,2.22423124 904.011116,81.637473 C904.011116,81.637473 912.158088,101.182519 797.435885,59.8750864 C797.435885,59.8750864 741.67897,64.3854816 791.786859,84.5470565 C791.786859,84.5470565 958.347181,138.412208 933.069796,202.790799 C933.069796,202.790799 970.699412,210.113431 713.846346,112.344936 C713.846346,112.344936 501.55527,19.3356108 319.491639,97.4076319 C319.491639,97.4076319 180.752483,142.587298 107.819321,185.311666 C107.830779,185.322482 22.0985057,253.259634 0.48783109,238.90641 L0.48783109,238.90641 Z" id="Shape"></path>
                    </g>
                    <g id="curve-4" transform="translate(0.245385, 260.821330)">
                        <path d="M12.4767496,371.494299 C12.4767496,371.494299 -112.775787,210.839862 437.345362,5.25453259 C437.345362,5.25453259 634.385214,-28.0272088 823.38122,84.0620618 C823.38122,84.0620618 1000.17396,203.592944 910.442676,236.928767 C910.442676,236.928767 737.156233,28.7150776 459.070622,57.3782607 C459.070622,57.3674445 82.5338358,185.140344 12.4767496,371.494299 L12.4767496,371.494299 Z" id="Shape"></path>
                    </g>
                    <g id="curve-3" transform="translate(349.793528, 540.746145)">
                        <path d="M0.67824317,410.189284 C0.67824317,410.189284 218.165797,350.946591 296.404951,189.22079 C296.404951,189.22079 347.742391,84.9338992 292.647252,51.4782535 C292.647252,51.4782535 204.51211,16.8335215 278.833434,0.528932718 C278.833434,0.528932718 408.943792,-2.52439881 357.040563,181.239805 C357.051238,181.239805 215.230094,483.590165 0.67824317,410.189284 L0.67824317,410.189284 Z" id="Shape"></path>
                    </g>
                    <g id="curve-2" transform="translate(47.443251, 385.758909)">
                        <path d="M441.243692,402.111383 C441.243692,402.111383 520.040714,372.184859 466.237359,424.738172 C466.237359,424.738172 201.782117,677.461642 8.9467473,445.313403 C8.9467473,445.313403 -95.4883703,145.749974 422.252042,6.06503141 C422.252042,6.06503141 644.351989,-48.8261055 867.210086,173.851564 C867.210086,173.851564 949.0018,291.040921 837.566434,423.855525 C837.566434,423.855525 748.370125,530.512749 798.723899,391.817804 C798.723899,391.817804 863.255072,282.297939 794.99633,185.123212 C794.99633,185.123212 732.600611,123.230533 763.697384,200.164004 C763.697384,200.164004 859.818127,327.623084 655.357795,531.264192 C655.357795,531.264192 591.357327,608.054531 441.711217,643.22923 C441.711217,643.22923 357.417609,656.659786 515.54236,564.065284 C515.54236,564.065284 789.96727,409.757019 707.569036,171.6688 C707.569036,171.6688 622.656273,5.37322655 343.821458,77.6906891 C343.821458,77.6906891 41.6103624,191.265962 64.7971066,404.139087 C64.7844708,404.139087 121.645696,571.281525 441.243692,402.111383 L441.243692,402.111383 Z" id="Shape"></path>
                    </g>
                    <g id="curve-1" transform="translate(173.194865, 513.115349)">
                        <path d="M398.712067,88.4171033 C329.663326,49.3594601 162.90821,171.399723 162.90821,171.399723 C67.860201,209.613695 104.607515,159.490981 104.607515,159.490981 C122.654605,117.469673 220.406813,85.7887435 220.406813,85.7887435 C376.643053,56.0980122 357.896996,18.4897527 357.896996,18.4897527 C319.041324,-23.2070666 224.70374,21.1072962 224.70374,21.1072962 C-95.6980012,170.264012 21.4533971,283.575524 21.4533971,283.575524 C115.367018,358.597349 339.551986,233.063423 339.551986,233.063423 C486.621449,129.756985 398.712067,88.4171033 398.712067,88.4171033 L398.712067,88.4171033 Z M292.526424,202.821061 C292.526424,202.821061 163.572802,278.794721 65.2132944,248.790317 C65.2132944,248.790317 34.0806311,228.531396 69.5560546,229.818535 C69.5560546,229.818535 213.967153,226.779156 259.812492,176.905217 C259.812492,176.905217 312.590205,114.516824 347.836459,121.709661 C347.847918,121.720477 415.99144,141.600828 292.526424,202.821061 L292.526424,202.821061 Z" id="Shape"></path>
                    </g>
                </g>
            </g>
        </g>
    </g>
</svg>