<?xml version="1.0" encoding="UTF-8" standalone="no"?>
<svg width="128px" height="35px" viewBox="0 0 128 35" version="1.1" xmlns="http://www.w3.org/2000/svg" xmlns:xlink="http://www.w3.org/1999/xlink" xmlns:sketch="http://www.bohemiancoding.com/sketch/ns">
    <!-- Generator: Sketch 3.4.4 (17249) - http://www.bohemiancoding.com/sketch -->
    <title>logo</title>
    <desc>Created with Sketch.</desc>
    <defs>
        <rect id="path-1" x="0" y="0" width="25" height="26.0869565" rx="10"></rect>
    </defs>
    <g id="Page-1" stroke="none" stroke-width="1" fill="none" fill-rule="evenodd" sketch:type="MSPage">
        <g id="Desktop-HD-Copy" sketch:type="MSArtboardGroup" transform="translate(-164.000000, -38.000000)">
            <g id="Menu" sketch:type="MSLayerGroup" transform="translate(165.000000, 28.000000)">
                <g id="logo">
                    <text id="D--lla" sketch:type="MSTextLayer" font-family="Trench" font-size="60" font-style="condensed" font-weight="260" sketch:alignment="middle" letter-spacing="4.28571415" fill="#FFFFFF">
                        <tspan x="0.942857552" y="45">D  lla</tspan>
                    </text>
                    <g id="icon-copy" transform="translate(40.000000, 17.000000)">
                        <mask id="mask-2" sketch:name="Mask" fill="white">
                            <use xlink:href="#path-1"></use>
                        </mask>
                        <use id="Mask" sketch:type="MSShapeGroup" xlink:href="#path-1"></use>
                        <path d="M30,13.5392424 C30,12.4261364 29.8964319,11.3400758 29.6823913,10.2190152 L29.5990057,9.78787879 L29.5878522,9.78787879 C28.6313081,5.5730303 26.1217741,1.76439394 22.6514471,-0.714772727 C22.4124438,-0.886060606 22.0815571,-0.830378788 21.9100059,-0.592272727 C21.7395169,-0.354166667 21.793691,-0.0227272727 22.0321631,0.1475 C25.4015777,2.55507576 27.8080747,6.30007576 28.6371504,10.4221212 L28.6589263,10.5297727 C28.8469421,11.545303 28.9377634,12.5306061 28.9377634,13.5392424 C28.9377634,13.8319697 29.1751733,14.0695455 29.4688817,14.0695455 C29.7625901,14.0695455 30,13.8319697 30,13.5392424 M-0.701825046,3.65227273 C1.74822372,0.374469697 5.31733876,-1.85969697 9.34958898,-2.63871212 C10.3709295,-2.83863636 11.4241371,-2.93939394 12.4789381,-2.93939394 C14.9932521,-2.93939394 17.4178072,-2.37674242 19.6872758,-1.26787879 C19.9517727,-1.13901515 20.2699126,-1.24719697 20.3979121,-1.51075758 C20.5264427,-1.77378788 20.4175634,-2.09143939 20.1541288,-2.22030303 C17.7386027,-3.40128788 15.1568366,-4 12.4789381,-4 C11.3556228,-4 10.233901,-3.89234848 9.14670178,-3.67969697 C4.85526583,-2.85030303 1.05564544,-0.471893939 -1.5532077,3.0180303 C-1.72900786,3.25295455 -1.68014497,3.58492424 -1.44539068,3.75992424 C-1.34978938,3.83098485 -1.23878566,3.86545455 -1.12831305,3.86545455 C-0.965790846,3.86545455 -0.805924235,3.79174242 -0.701825046,3.65227273 M-3.92518207,17.9672727 C-3.63997154,17.8988636 -3.46417138,17.6125 -3.53215452,17.3277273 C-3.54277689,17.2837121 -3.55339925,17.2465909 -3.5634905,17.2121212 L-3.56242827,17.2121212 L-3.67396311,16.5794697 C-4.38353717,12.9951515 -3.82533183,9.21727273 -2.12522212,5.94106061 C-1.99031807,5.68121212 -2.06467463,5.36090909 -2.3249226,5.22621212 C-2.58570169,5.09151515 -2.85126085,5.19333333 -2.9861649,5.45318182 C-4.78771821,8.92401515 -5.58492679,12.9256818 -4.52269017,16.7274242 L-4.52269017,16.7300758 C-4.52269017,17.1315152 -4.5524328,17.2789394 -4.49507202,17.4454545 C-4.4828563,17.4815152 -4.57845759,17.5202273 -4.56517964,17.5759091 C-4.50675662,17.8182576 -4.28899811,17.9826515 -4.04893264,17.9826515 C-4.00803653,17.9815909 -3.9666093,17.9762879 -3.92518207,17.9672727 M8.64107715,30.2612879 C12.8868369,24.6114394 14.1886079,19.5730303 12.9967784,13.4135606 C12.941011,13.1261364 12.6611116,12.9378788 12.3743078,12.9935606 C12.0864416,13.0492424 11.8984257,13.3271212 11.9536621,13.6150758 C13.0998154,19.5279545 11.8931146,24.1659848 7.79181897,29.6243939 C7.61548769,29.8587879 7.66328834,30.1912879 7.89804263,30.3662879 C7.99364393,30.4378788 8.10570989,30.4723485 8.2161825,30.4723485 C8.37764247,30.4739394 8.53697796,30.4007576 8.64107715,30.2612879 M10.965782,30.6781061 C15.1148782,24.8219697 16.3460105,19.5380303 15.0819489,13.0115909 C14.9470448,12.3147727 14.548175,11.7123485 13.9596959,11.3151515 C13.3728102,10.9190152 12.6658917,10.775303 11.9706578,10.9105303 C11.2743617,11.0452273 10.6720736,11.4424242 10.2747971,12.03 C9.8780517,12.6170455 9.73358752,13.3239394 9.86849157,14.0191667 C10.341718,16.4633333 10.3433113,18.6715152 9.87380275,20.7699242 C9.81006855,21.0557576 9.99011766,21.3389394 10.2763904,21.4025758 C10.5642566,21.4667424 10.8468115,21.2864394 10.9105457,21.0006061 C11.4124525,18.7579545 11.4129836,16.4071212 10.9116079,13.8165909 C10.8308779,13.3987121 10.9174502,12.9744697 11.1553912,12.6218182 C11.3933322,12.2691667 11.7544927,12.0310606 12.1730139,11.9499242 C12.591004,11.8693182 13.0137742,11.9552273 13.3653745,12.1922727 C13.7190993,12.4303788 13.9581026,12.7920455 14.0404259,13.2109848 C15.24394,19.4261364 14.0653885,24.467197 10.099528,30.0640152 C9.93010129,30.3031818 9.98693095,30.6335606 10.2264653,30.8037879 C10.3199421,30.8695455 10.4266969,30.9013636 10.5329206,30.9013636 C10.6980984,30.9013636 10.8622139,30.8239394 10.965782,30.6781061 M6.50013924,29.5644697 C8.09402529,27.522803 9.24655202,25.6290909 10.023047,23.7735606 C10.1361752,23.5031061 10.0081757,23.1923485 9.73730534,23.0793939 C9.46537277,22.9653788 9.15519968,23.0931818 9.04260259,23.3641667 C8.30328591,25.1311364 7.19749758,26.9458333 5.66256567,28.9116667 C5.48198544,29.1428788 5.52341267,29.4753788 5.75498025,29.6551515 C5.8521749,29.7309848 5.96689646,29.7675758 6.0810869,29.7675758 C6.23936015,29.7686364 6.39550893,29.6986364 6.50013924,29.5644697 M4.53500149,28.6247727 C8.34418202,23.8769697 9.64064181,20.0312121 9.00861102,15.3518182 C8.96930827,15.0606818 8.70003128,14.8607576 8.41110292,14.8973485 C8.12058121,14.9365909 7.91663178,15.2033333 7.95593453,15.4939394 C8.55291151,19.9108333 7.36108202,23.4071212 3.70645693,27.9624242 C3.52268999,28.1915152 3.55986828,28.5256061 3.78878027,28.7075 C3.88650604,28.7859848 4.00388318,28.8241667 4.12072921,28.8241667 C4.27581576,28.8236364 4.43037119,28.7568182 4.53500149,28.6247727 M17.138439,17.7424242 C17.4321474,17.7424242 17.6658395,17.5122727 17.6615905,17.2206061 C17.6387524,15.727803 17.4735747,14.1856818 17.1665883,12.6075 C16.7321335,10.3653788 14.7611534,8.73840909 12.4778758,8.73840909 C12.1724828,8.73840909 11.8654964,8.76810606 11.5659457,8.82590909 C10.3119754,9.06878788 9.22796288,9.78469697 8.51307764,10.8415909 C8.16997521,11.3496212 7.93044085,11.9106818 7.8013791,12.5093939 C7.73976938,12.7957576 7.92194296,13.0778788 8.20874685,13.1393939 C8.49661297,13.1993182 8.77810567,13.0184848 8.8397154,12.7326515 C8.94009676,12.2665152 9.1270504,11.8290152 9.3936718,11.4339394 C9.94922155,10.6119697 10.7926374,10.0540909 11.7683018,9.86530303 C12.0014627,9.82022727 12.2404659,9.79530303 12.4778758,9.79530303 C14.2528732,9.79530303 15.7862118,11.0574242 16.124003,12.8010606 C16.4177115,14.3187879 16.5775781,15.8057576 16.5993539,17.2365152 C16.6036029,17.5265909 16.8399505,17.7429545 17.1304722,17.7429545 C17.1325967,17.7424242 17.1357834,17.7424242 17.138439,17.7424242 M13.4684115,30.7587121 C15.7755894,27.2115152 17.0996674,23.7316667 17.515533,20.120303 C17.5484623,19.8291667 17.340264,19.5661364 17.04868,19.5332576 C16.7560338,19.5003788 16.4936614,19.7087879 16.460732,19.9993939 C16.0634555,23.4437121 14.7930205,26.7740152 12.5771949,30.1806818 C12.4173283,30.4267424 12.487436,30.755 12.7333437,30.9146212 C12.8231027,30.9724242 12.9234841,31 13.0222721,31 C13.1959478,31 13.367499,30.9151515 13.4684115,30.7587121 M16.1691481,30.4394697 C19.5592763,24.6384848 20.5397207,18.8438636 19.2533521,12.2034091 C18.875727,10.2566667 17.6716818,8.56287879 15.9513896,7.55742424 C15.6985773,7.40893939 15.3730017,7.49378788 15.2253508,7.74674242 C15.0771688,7.99969697 15.1621478,8.32424242 15.4149601,8.47219697 C16.8718176,9.32386364 17.8905025,10.7572727 18.2107669,12.4049242 C19.4445547,18.7781061 18.5055375,24.3388636 15.2524379,29.9049242 C15.1053181,30.1584091 15.1908282,30.4829545 15.4431094,30.6298485 C15.527026,30.679697 15.6194406,30.7025 15.710793,30.7025 C15.8924354,30.7025 16.0703601,30.609697 16.1691481,30.4394697 M2.74566391,27.4628788 C6.56068673,22.7675758 7.64310585,19.2877273 6.74020472,14.6242424 C6.44330958,13.0927273 6.76091833,11.5378788 7.63513907,10.2460606 C8.50935981,8.95371212 9.83396888,8.07924242 11.3662452,7.78227273 C11.8899279,7.67992424 12.4332619,7.6544697 12.9596001,7.69636364 C13.2490596,7.71969697 13.5082453,7.50227273 13.5316146,7.21060606 C13.5555149,6.91893939 13.3377564,6.66280303 13.0451102,6.6394697 C12.4231706,6.58909091 11.7815797,6.62090909 11.163358,6.74075758 C9.35277569,7.09075758 7.78703891,8.12484848 6.75454491,9.65159091 C5.72205092,11.177803 5.34655027,13.015303 5.69708836,14.824697 C6.53147522,19.1344697 5.50801024,22.3783333 1.92083717,26.7931061 C1.736008,27.0211364 1.77053069,27.3552273 1.99838044,27.5387121 C2.09663733,27.6182576 2.21507671,27.6580303 2.33245386,27.6580303 C2.48754041,27.6590909 2.64050248,27.5922727 2.74566391,27.4628788 M19.0621495,29.5851515 C19.8567025,27.9974242 20.4967001,26.3603788 20.9646153,24.7190909 C21.0442831,24.4375 20.8812297,24.1442424 20.5992059,24.0641667 C20.316651,23.9830303 20.0229425,24.1474242 19.9432748,24.4290152 C19.4939487,26.007197 18.8789137,27.5816667 18.1130411,29.1105303 C17.9818549,29.3725 18.0875474,29.6912121 18.3499199,29.822197 C18.426932,29.8593182 18.507662,29.8773485 18.5873297,29.8773485 C18.781719,29.8784091 18.9686727,29.7718182 19.0621495,29.5851515 M21.5977083,21.9063636 C22.121391,18.7112879 22.0369432,15.4048485 21.3385226,11.8003788 C20.5179448,7.56590909 16.7921499,4.49227273 12.4800003,4.49227273 C11.9026747,4.49227273 11.3242869,4.54795455 10.7613014,4.65772727 C8.3930449,5.11484848 6.34558381,6.46712121 4.99548107,8.46477273 C3.64484721,10.4613636 3.15409389,12.8641667 3.61244899,15.2309091 C3.84401657,16.4262121 3.90615741,17.4295455 3.80843165,18.3893939 C3.77868902,18.6810606 3.99113634,18.9409091 4.2827203,18.9711364 C4.57908431,18.995 4.83508334,18.7887121 4.86482596,18.4970455 C4.97423634,17.4311364 4.90731543,16.3291667 4.65556535,15.0288636 C4.25032208,12.9405303 4.68371462,10.8203788 5.87554411,9.05818182 C7.06684248,7.29598485 8.87317585,6.10280303 10.9636575,5.69924242 C11.4602531,5.60219697 11.9706578,5.55340909 12.4794692,5.55340909 C16.2849319,5.55340909 19.5720231,8.26537879 20.2959374,12.0024242 C20.9699265,15.4817424 21.0522498,18.6656818 20.5492808,21.7356061 C20.5020113,22.0246212 20.6974628,22.297197 20.9879845,22.3438636 C21.017196,22.3491667 21.0448142,22.3512879 21.0740257,22.3512879 C21.3294936,22.3502273 21.5552189,22.1662121 21.5977083,21.9063636 M1.12415971,26.0893939 C2.53056099,24.3494697 3.5083498,22.8052273 4.11223132,21.3702273 C4.22589064,21.0997727 4.09895336,20.7890152 3.82808302,20.6755303 C3.55668157,20.5625758 3.24650847,20.6887879 3.13284915,20.9581818 C2.56827039,22.3003788 1.6404067,23.7608333 0.297208496,25.4233333 C0.112910442,25.6513636 0.149026487,25.9854545 0.376876242,26.1689394 C0.47513313,26.2474242 0.593041395,26.2861364 0.709887423,26.2861364 C0.865505088,26.2861364 1.0195294,26.2187879 1.12415971,26.0893939 M-0.327917755,24.5048485 C3.1370981,20.1362121 3.04680799,17.9004545 2.56933263,15.4318939 C2.05680346,12.787803 2.60544867,10.1018182 4.11435579,7.86924242 C4.65609647,7.06848485 5.3067164,6.35045455 6.0492198,5.73583333 C6.27494508,5.54863636 6.30628106,5.21454545 6.1187963,4.98916667 C5.93131153,4.76378788 5.596707,4.7330303 5.37098171,4.91969697 C4.55093504,5.59848485 3.83180085,6.39128788 3.23376163,7.27583333 C1.56605014,9.74280303 0.960044147,12.7109091 1.52621627,15.6323485 C1.96598223,17.9036364 2.03077866,19.8222727 -1.16071127,23.8456818 C-1.34288485,24.0758333 -1.30411321,24.4088636 -1.07360786,24.5907576 C-0.975882094,24.6681818 -0.860098302,24.705303 -0.744314511,24.705303 C-0.587634609,24.7058333 -0.432548062,24.6368939 -0.327917755,24.5048485 M22.1139553,28.0075 C24.1895657,22.7787121 24.6054313,17.5006061 23.4236931,11.3962879 C23.1209556,9.83030303 22.4974227,8.37621212 21.5716835,7.07378788 C21.4017257,6.83515152 21.070839,6.77893939 20.8307735,6.94863636 C20.5917703,7.11833333 20.5349406,7.44924242 20.7054296,7.68840909 C21.5430031,8.86621212 22.1070508,10.1818939 22.3805767,11.5983333 C23.5224811,17.4947727 23.1241424,22.5846212 21.1266064,27.6177273 C21.0187894,27.8897727 21.1521001,28.1984091 21.4250949,28.3060606 C21.4893602,28.3315152 21.5546877,28.3431818 21.6200153,28.3431818 C21.8314004,28.3431818 22.031632,28.2164394 22.1139553,28.0075 M19.629915,5.65840909 C19.8168686,5.4325 19.7844704,5.09787879 19.5571518,4.91174242 C17.5643959,3.27204545 15.051144,2.36893939 12.4789381,2.36893939 C11.7651151,2.36893939 11.0507609,2.43734848 10.3565893,2.57310606 C9.5068,2.7375 8.67400649,3.00106061 7.88210909,3.35742424 C7.61495658,3.47780303 7.49545496,3.79174242 7.61601881,4.05848485 C7.73605155,4.32522727 8.04994247,4.44454545 8.31815722,4.32416667 C9.03516694,4.00174242 9.78935494,3.76310606 10.5594765,3.61409091 C11.1872583,3.49159091 11.8330982,3.42954545 12.4789381,3.42954545 C14.8047051,3.42954545 17.0789537,4.24674242 18.8815693,5.73 C18.9803573,5.81166667 19.0993278,5.85143939 19.2188294,5.85143939 C19.3723226,5.85143939 19.5236913,5.78568182 19.629915,5.65840909 M25.3346568,13.1579545 C25.6246474,13.1134091 25.8238167,12.8424242 25.7786717,12.5528788 C25.699535,12.0368939 25.6113694,11.5177273 25.5093947,10.9932576 C24.3026939,4.76590909 18.8231463,0.246136364 12.4789381,0.246136364 C11.6296799,0.246136364 10.7793595,0.32780303 9.9534705,0.489015152 C6.47145885,1.1625 3.46001803,3.15060606 1.47416667,6.08742424 C0.415116761,7.65340909 -0.284897172,9.38484848 -0.606754868,11.2329545 C-0.657211108,11.5214394 -0.463352924,11.7961364 -0.174424564,11.8465152 C0.117690507,11.8968939 0.389623082,11.7033333 0.440079321,11.4148485 C0.73591222,9.71469697 1.38015873,8.12219697 2.35422971,6.68083333 C4.1812767,3.97893939 6.95158981,2.14992424 10.1558266,1.53 C10.916388,1.38204545 11.697663,1.30674242 12.4789381,1.30674242 C18.3153972,1.30674242 23.3567722,5.46537879 24.4668094,11.1947727 C24.5655974,11.7065152 24.6516386,12.2124242 24.7286508,12.7156818 C24.7684846,12.9776515 24.9952722,13.1648485 25.2528645,13.1648485 C25.2799516,13.1643182 25.3070386,13.162197 25.3346568,13.1579545 M25.2332132,25.4100758 C26.0888448,22.1943182 26.3740553,18.9170455 26.1074339,15.3910606 C26.0851269,15.0988636 25.8301901,14.8814394 25.5386062,14.9021212 C25.2454289,14.9238636 25.026077,15.1784091 25.048384,15.4700758 C25.3065075,18.8762121 25.0313882,22.0384091 24.2070926,25.1369697 C24.1316738,25.4196212 24.3011005,25.7107576 24.5841866,25.7860606 C24.6298628,25.7977273 24.6766012,25.8035606 24.7212151,25.8035606 C24.9559694,25.8040909 25.1705412,25.6471212 25.2332132,25.4100758 M-1.60153946,22.6848485 C1.11566181,19.1010606 0.808675429,17.5143939 0.483631023,15.8333333 C0.374220651,15.2712121 0.304113034,14.6921212 0.274370409,14.1098485 C0.260030214,13.8165909 0.0151846731,13.5917424 -0.282772699,13.6071212 C-0.575418888,13.6219697 -0.80114417,13.8712121 -0.786272857,14.1634091 C-0.754405759,14.7944697 -0.677924722,15.4244697 -0.559485339,16.0348485 C-0.256747902,17.600303 -0.0172135438,18.8369697 -2.44867317,22.0437121 C-2.62553557,22.2770455 -2.57985939,22.6100758 -2.34563622,22.7861364 C-2.2495038,22.8587879 -2.13690672,22.8937879 -2.02537188,22.8937879 C-1.86497415,22.8953788 -1.70616977,22.8227273 -1.60153946,22.6848485 M-2.67970963,20.5604545 C-1.18939165,18.3687121 -1.38059425,17.3807576 -1.60153946,16.2374242 C-2.32970267,12.4802273 -1.54948987,8.66416667 0.59463475,5.49189394 C2.73929049,2.31962121 5.99185902,0.172424242 9.75323889,-0.554621212 C11.239839,-0.845227273 12.7965468,-0.89719697 14.3383833,-0.694621212 C14.6310295,-0.660151515 14.8965886,-0.861136364 14.9337669,-1.15121212 C14.9720074,-1.44181818 14.768058,-1.7080303 14.476474,-1.74621212 C12.8225716,-1.96363636 11.1474245,-1.90795455 9.55088282,-1.59560606 C5.51172807,-0.814469697 2.01803182,1.49181818 -0.285428291,4.89901515 C-2.58835728,8.30568182 -3.42646198,12.4043939 -2.64412471,16.4394697 C-2.44601758,17.4629545 -2.31536247,18.1380303 -3.5576482,19.9649242 C-3.72282599,20.2072727 -3.6590918,20.5376515 -3.41637073,20.7020455 C-3.32501838,20.7640909 -3.22145031,20.7937879 -3.11841336,20.7937879 C-2.94951774,20.7932576 -2.78274659,20.7121212 -2.67970963,20.5604545 M28.6765578,21.6868182 C28.659562,21.6868182 28.641504,21.6857576 28.6218526,21.684697 C28.3302687,21.6539394 28.1183525,21.3940909 28.1470329,21.1024242 C28.4795129,17.8458333 28.2930904,14.4736364 27.5808608,10.7906818 C26.5972296,5.71886364 22.9319822,1.55227273 18.01542,-0.0837121212 C17.7376451,-0.176515152 17.5868075,-0.476666667 17.6797532,-0.754545455 C17.7726989,-1.03189394 18.0711874,-1.1830303 18.3516179,-1.08969697 C23.6304028,0.666666667 27.5675828,5.14242424 28.623446,10.589697 C29.3569204,14.3760606 29.5470607,17.8500758 29.2044894,21.2106061 C29.1779335,21.4837121 28.9463659,21.6868182 28.6765578,21.6868182" id="icon-copy-10" fill="#57EEBD" sketch:type="MSShapeGroup" mask="url(#mask-2)"></path>
                    </g>
                </g>
            </g>
        </g>
    </g>
</svg>