<?xml version="1.0" encoding="UTF-8" standalone="no"?>
<svg width="128px" height="36px" viewBox="0 0 128 36" version="1.1" xmlns="http://www.w3.org/2000/svg" xmlns:xlink="http://www.w3.org/1999/xlink" xmlns:sketch="http://www.bohemiancoding.com/sketch/ns">
    <!-- Generator: Sketch 3.4.4 (17249) - http://www.bohemiancoding.com/sketch -->
    <title>logo copy</title>
    <desc>Created with Sketch.</desc>
    <defs>
        <rect id="path-1" x="0" y="0" width="25" height="26.0869565" rx="10"></rect>
    </defs>
    <g id="Page-1" stroke="none" stroke-width="1" fill="none" fill-rule="evenodd" sketch:type="MSPage">
        <g id="Desktop-HD-Copy" sketch:type="MSArtboardGroup" transform="translate(-164.000000, -799.000000)">
            <g id="Menu" sketch:type="MSLayerGroup" transform="translate(165.000000, 28.000000)">
                <g id="logo-copy" transform="translate(0.000000, 761.000000)">
                    <text id="D--lla" sketch:type="MSTextLayer" font-family="Trench" font-size="60" font-style="condensed" font-weight="260" sketch:alignment="middle" letter-spacing="4.28571415" fill="#3A3D42">
                        <tspan x="0.942857552" y="45">D  lla</tspan>
                    </text>
                    <g id="icon-copy" transform="translate(39.000000, 19.000000)">
                        <mask id="mask-2" sketch:name="Mask" fill="white">
                            <use xlink:href="#path-1"></use>
                        </mask>
                        <use id="Mask" sketch:type="MSShapeGroup" xlink:href="#path-1"></use>
                        <path d="M29.499994,13.0381212 C29.499994,11.9568182 29.399385,10.9017879 29.1914598,9.81275758 L29.1104567,9.39393939 L29.0996219,9.39393939 C28.1704078,5.29951515 25.7325752,1.59969697 22.361401,-0.808636364 C22.1292264,-0.975030303 21.8077937,-0.920939394 21.641144,-0.689636364 C21.4755261,-0.458333333 21.5281524,-0.136363636 21.7598109,0.029 C25.0329559,2.36778788 27.3706955,6.00578788 28.1760832,10.0100606 L28.1972369,10.1146364 C28.3798808,11.1011515 28.4681072,12.058303 28.4681072,13.0381212 C28.4681072,13.3224848 28.6987339,13.5532727 28.9840506,13.5532727 C29.2693673,13.5532727 29.499994,13.3224848 29.499994,13.0381212 M-0.324630784,3.43363636 C2.05541617,0.249484848 5.52255588,-1.92084848 9.43959825,-2.67760606 C10.4317574,-2.87181818 11.4548732,-2.96969697 12.4795368,-2.96969697 C14.9220129,-2.96969697 17.2772946,-2.42312121 19.4819208,-1.34593939 C19.7388606,-1.22075758 20.0479107,-1.32584848 20.1722531,-1.58187879 C20.2971114,-1.83739394 20.191343,-2.1459697 19.935435,-2.27115152 C17.5889244,-3.41839394 15.0809235,-4 12.4795368,-4 C11.3883165,-4 10.298644,-3.89542424 9.24250787,-3.68884848 C5.07368512,-2.88315152 1.38262596,-0.57269697 -1.15168807,2.81751515 C-1.32246534,3.04572727 -1.27499855,3.36821212 -1.04695156,3.53821212 C-0.954081744,3.60724242 -0.846249571,3.64072727 -0.738933342,3.64072727 C-0.581054658,3.64072727 -0.425755692,3.56912121 -0.324630784,3.43363636 M-3.45589134,17.3396364 C-3.17882973,17.2731818 -3.00805246,16.995 -3.07409322,16.7183636 C-3.08441208,16.6756061 -3.09473095,16.6395455 -3.10453388,16.6060606 L-3.10350199,16.6060606 L-3.21185011,15.9914848 C-3.9011505,12.5095758 -3.35889398,8.83963636 -1.70735912,5.6570303 C-1.5763095,5.40460606 -1.64854157,5.09345455 -1.90135384,4.96260606 C-2.15468206,4.83175758 -2.41265376,4.93066667 -2.54370339,5.18309091 C-4.29378344,8.55475758 -5.0682145,12.4420909 -4.03632768,16.1352121 L-4.03632768,16.1377879 C-4.03632768,16.5277576 -4.06522051,16.6709697 -4.00949862,16.8327273 C-3.99763192,16.8677576 -4.09050173,16.9053636 -4.07760315,16.9594545 C-4.02084937,17.1948788 -3.80931258,17.3545758 -3.57610615,17.3545758 C-3.53637851,17.3535455 -3.49613493,17.3483939 -3.45589134,17.3396364 M8.75132974,29.2823939 C12.8757814,23.7939697 14.1403587,18.8995152 12.9825817,12.9160303 C12.9284076,12.6368182 12.6565054,12.4539394 12.377896,12.5080303 C12.0982546,12.5621212 11.9156107,12.8320606 11.9692688,13.1117879 C13.0826747,18.8557273 11.9104512,23.3612424 7.92633623,28.663697 C7.75504302,28.8913939 7.80147793,29.2143939 8.02952491,29.3843939 C8.12239473,29.4539394 8.23125879,29.4874242 8.33857502,29.4874242 C8.49542181,29.4889697 8.65020484,29.4178788 8.75132974,29.2823939 M11.009614,29.687303 C15.040164,23.9984848 16.2361208,18.8655152 15.0081755,12.5255455 C14.8771259,11.8486364 14.4896524,11.2634242 13.9179871,10.8775758 C13.3478696,10.4927576 12.6611489,10.3531515 11.985779,10.4845152 C11.3093772,10.6153636 10.7242973,11.0012121 10.3383717,11.572 C9.95296195,12.1422727 9.81262534,12.8289697 9.94367496,13.5043333 C10.4033805,15.8786667 10.4049284,18.0237576 9.9488344,20.0622121 C9.88692119,20.3398788 10.061826,20.6149697 10.3399195,20.6767879 C10.6195608,20.7391212 10.8940427,20.5639697 10.9559559,20.286303 C11.4435225,18.1077273 11.4440384,15.8240606 10.9569878,13.3075455 C10.8785644,12.9016061 10.9626632,12.4894848 11.1938058,12.1469091 C11.4249485,11.8043333 11.77579,11.5730303 12.1823534,11.4942121 C12.5884009,11.4159091 12.9990918,11.4993636 13.3406464,11.7296364 C13.6842647,11.9609394 13.9164392,12.3122727 13.9964105,12.7192424 C15.1655382,18.7568182 14.0206598,23.6538485 10.1681103,29.0907576 C10.0035244,29.3230909 10.0587303,29.6440303 10.2914208,29.8093939 C10.3822269,29.8732727 10.4859315,29.9041818 10.5891202,29.9041818 C10.7495786,29.9041818 10.9090051,29.8289697 11.009614,29.687303 M6.67156186,28.6054848 C8.21990803,26.6221515 9.33950523,24.7825455 10.0938145,22.9800303 C10.2037104,22.717303 10.0793681,22.4154242 9.81623694,22.305697 C9.55207392,22.1949394 9.25076296,22.3190909 9.14138296,22.5823333 C8.42318973,24.2988182 7.34899555,26.0616667 5.8579191,27.9713333 C5.68249834,28.1959394 5.72274193,28.5189394 5.94769325,28.6935758 C6.0421109,28.7672424 6.15355467,28.8027879 6.26448251,28.8027879 C6.41823364,28.8038182 6.56992101,28.7358182 6.67156186,28.6054848 M4.76257124,27.6926364 C8.46291738,23.0804848 9.72233524,19.3446061 9.10836258,14.7989091 C9.07018277,14.5160909 8.80859946,14.3218788 8.52792625,14.3574242 C8.2457052,14.3955455 8.04758293,14.6546667 8.08576274,14.9369697 C8.66568314,19.2276667 7.50790613,22.6240606 3.95769952,27.0492121 C3.7791831,27.2717576 3.81529914,27.596303 4.03767075,27.773 C4.13260434,27.8492424 4.24662783,27.8863333 4.36013538,27.8863333 C4.51079086,27.8858182 4.66093039,27.8209091 4.76257124,27.6926364 M17.0059084,17.1212121 C17.2912251,17.1212121 17.5182402,16.8976364 17.5141126,16.614303 C17.4919271,15.1641515 17.3314687,13.6660909 17.0332534,12.133 C16.6112117,9.95493939 14.6965457,8.37445455 12.4785049,8.37445455 C12.1818375,8.37445455 11.8836222,8.40330303 11.5926301,8.45945455 C10.3744877,8.69539394 9.32144721,9.39084848 8.62698738,10.4175455 C8.29368794,10.9110606 8.06099746,11.4560909 7.93562321,12.037697 C7.87577378,12.3158788 8.05274237,12.5899394 8.33135181,12.649697 C8.61099314,12.7079091 8.88444314,12.5322424 8.94429258,12.2545758 C9.04180588,11.8017576 9.22341796,11.3767576 9.48242156,10.9929697 C10.0220984,10.1944848 10.8414165,9.65254545 11.7892045,9.46915152 C12.0157037,9.42536364 12.2478782,9.40115152 12.4785049,9.40115152 C14.2027878,9.40115152 15.6923164,10.6272121 16.0204564,12.3210303 C16.3057732,13.7953939 16.4610721,15.2398788 16.4822258,16.6297576 C16.4863533,16.9115455 16.7159482,17.1217273 16.9981692,17.1217273 C17.000233,17.1212121 17.0033286,17.1212121 17.0059084,17.1212121 M13.4407394,29.7656061 C15.6819976,26.3197576 16.9682445,22.9393333 17.3722282,19.4311515 C17.4042167,19.1483333 17.2019669,18.8928182 16.9187139,18.8608788 C16.6344291,18.8289394 16.3795531,19.0313939 16.3475646,19.313697 C15.9616389,22.6596061 14.7275023,25.8947576 12.5749864,29.2040909 C12.4196874,29.4431212 12.4877919,29.762 12.7266737,29.9170606 C12.8138682,29.9732121 12.9113815,30 13.0073469,30 C13.1760604,30 13.3427102,29.9175758 13.4407394,29.7656061 M16.0643116,29.4554848 C19.3575784,23.8202424 20.31001,18.1911818 19.060395,11.7404545 C18.6935593,9.84933333 17.5239155,8.20393939 15.8527748,7.22721212 C15.6071858,7.0829697 15.2909125,7.16539394 15.1474802,7.41112121 C15.003532,7.65684848 15.0860829,7.97212121 15.331672,8.11584848 C16.7469048,8.94318182 17.7364842,10.3356364 18.0475981,11.9362121 C19.2461346,18.127303 18.3339467,23.5291818 15.1737933,28.9362121 C15.030877,29.1824545 15.1139439,29.4977273 15.359017,29.6404242 C15.4405361,29.6888485 15.5303102,29.711 15.6190525,29.711 C15.7955051,29.711 15.9683462,29.6208485 16.0643116,29.4554848 M3.02435789,26.5639394 C6.73037941,22.0027879 7.78187208,18.6223636 6.90476828,14.0921212 C6.61635591,12.6043636 6.92489007,11.0939394 7.77413292,9.8390303 C8.62337578,8.58360606 9.91013864,7.73412121 11.3986354,7.44563636 C11.9073556,7.34621212 12.4351657,7.32148485 12.9464656,7.36218182 C13.2276548,7.38484848 13.4794352,7.17363636 13.5021367,6.89030303 C13.5253541,6.6069697 13.3138173,6.35815152 13.0295325,6.33548485 C12.4253628,6.28654545 11.8021031,6.31745455 11.201545,6.43387879 C9.44269391,6.77387879 7.92169274,7.77842424 6.91869875,9.26154545 C5.91570476,10.7441515 5.55093277,12.5291515 5.89145542,14.2868485 C6.70200252,18.4734848 5.70777957,21.6246667 2.22309778,25.913303 C2.04354947,26.1348182 2.07708579,26.4593636 2.29842551,26.6376061 C2.39387504,26.7148788 2.50893042,26.7535152 2.62295392,26.7535152 C2.77360939,26.7545455 2.9222011,26.6896364 3.02435789,26.5639394 M18.8746554,28.6255758 C19.6465067,27.0832121 20.2682185,25.4929394 20.7227647,23.8985455 C20.8001562,23.625 20.6417616,23.3401212 20.3677956,23.2623333 C20.0933137,23.1835152 19.807997,23.3432121 19.7306055,23.6167576 C19.2941174,25.1498485 18.6966549,26.6793333 17.9526645,28.1645152 C17.8252265,28.419 17.9278992,28.7286061 18.1827753,28.8558485 C18.2575871,28.8919091 18.3360105,28.9094242 18.413402,28.9094242 C18.6022373,28.9104545 18.7838494,28.8069091 18.8746554,28.6255758 M21.3377692,21.1661818 C21.8464894,18.0623939 21.7644544,14.8504242 21.0859888,11.3489394 C20.2888563,7.23545455 16.6695133,4.24963636 12.4805687,4.24963636 C11.9197382,4.24963636 11.3578759,4.30372727 10.8109758,4.41036364 C8.51038417,4.85442424 6.52142233,6.16806061 5.20989418,8.10863636 C3.89785008,10.0481818 3.42111837,12.3823333 3.86637754,14.6814545 C4.09132886,15.8426061 4.15169424,16.8172727 4.05676066,17.749697 C4.02786782,18.0330303 4.23424519,18.2854545 4.51749812,18.3148182 C4.80539454,18.338 5.05407927,18.1376061 5.0829721,17.8542727 C5.18925644,16.8188182 5.12424757,15.7483333 4.87969039,14.4851818 C4.48602557,12.4565152 4.90703539,10.3969394 6.06481241,8.68509091 C7.22207348,6.97324242 8.97679701,5.81415152 11.0075503,5.42212121 C11.4899574,5.32784848 11.985779,5.28045455 12.4800528,5.28045455 C16.1767873,5.28045455 19.3699611,7.91493939 20.0731919,11.5452121 C20.7279241,14.9251212 20.8078954,18.0180909 20.3192969,21.000303 C20.273378,21.2810606 20.4632452,21.5458485 20.7454662,21.5911818 C20.7738431,21.5963333 20.8006721,21.5983939 20.829049,21.5983939 C21.0772178,21.5973636 21.2964938,21.4186061 21.3377692,21.1661818 M1.44918266,25.229697 C2.81540081,23.5394848 3.76525263,22.0393636 4.35188029,20.6453636 C4.46229218,20.3826364 4.3389817,20.0807576 4.07585056,19.9705152 C3.81220348,19.8607879 3.51089253,19.9833939 3.40048064,20.2450909 C2.85203279,21.5489394 1.95067965,22.9676667 0.645858771,24.5826667 C0.466826407,24.8041818 0.501910559,25.1287273 0.723250282,25.3069697 C0.818699813,25.3832121 0.93323925,25.4208182 1.0467468,25.4208182 C1.19791822,25.4208182 1.34754181,25.3553939 1.44918266,25.229697 M0.0385933771,23.6904242 C3.40460818,19.4466061 3.3168978,17.2747273 2.85306468,14.876697 C2.35517929,12.3081515 2.88814883,9.69890909 4.35394406,7.53012121 C4.88020634,6.75224242 5.51223701,6.05472727 6.2335259,5.45766667 C6.45280185,5.27581818 6.48324251,4.95127273 6.30111449,4.73233333 C6.11898647,4.51339394 5.79394212,4.48351515 5.57466617,4.66484848 C4.77804954,5.32424242 4.07946217,6.09439394 3.49850989,6.95366667 C1.87844758,9.35015152 1.28975615,12.2334545 1.83975182,15.0714242 C2.26695297,17.2778182 2.32989806,19.1416364 -0.77040589,23.0500909 C-0.94737448,23.2736667 -0.909710611,23.5971818 -0.685791171,23.7738788 C-0.590857583,23.8490909 -0.47838192,23.8851515 -0.365906256,23.8851515 C-0.21370295,23.8856667 -0.0630474747,23.818697 0.0385933771,23.6904242 M21.8392662,27.093 C23.8555731,22.0136061 24.2595568,16.886303 23.1115827,10.9563939 C22.8174949,9.43515152 22.2117774,8.02260606 21.312488,6.75739394 C21.1473861,6.52557576 20.8259534,6.4709697 20.5927469,6.63581818 C20.3605724,6.80066667 20.3053665,7.12212121 20.4709843,7.35445455 C21.2846271,8.49860606 21.832559,9.77669697 22.0982698,11.1526667 C23.2075482,16.8806364 22.8205906,21.8250606 20.8801274,26.7143636 C20.7753909,26.9786364 20.9048927,27.2784545 21.1700876,27.3830303 C21.2325168,27.4077576 21.2959778,27.4190909 21.3594389,27.4190909 C21.5647843,27.4190909 21.759295,27.2959697 21.8392662,27.093 M19.4261989,5.38245455 C19.607811,5.163 19.5763384,4.83793939 19.3555147,4.65712121 C17.419695,3.06427273 14.9782508,2.1869697 12.4795368,2.1869697 C11.7861089,2.1869697 11.092165,2.25342424 10.417827,2.38530303 C9.5923175,2.545 8.78331824,2.8010303 8.01404661,3.14721212 C7.75452708,3.26415152 7.63843981,3.56912121 7.75555896,3.82824242 C7.87216217,4.08736364 8.17708473,4.20327273 8.43763615,4.08633333 C9.13415975,3.77312121 9.8667994,3.54130303 10.6149173,3.39654545 C11.2247625,3.27754545 11.8521496,3.21727273 12.4795368,3.21727273 C14.738853,3.21727273 16.9481227,4.01112121 18.6992346,5.452 C18.7952001,5.53133333 18.9107714,5.5699697 19.0268587,5.5699697 C19.1759663,5.5699697 19.3230102,5.50609091 19.4261989,5.38245455 M24.9679471,12.6677273 C25.2496522,12.6244545 25.4431309,12.3612121 25.3992758,12.0799394 C25.3224002,11.578697 25.2367536,11.0743636 25.1376924,10.5648788 C23.965469,4.51545455 18.6424809,0.124818182 12.4795368,0.124818182 C11.6545433,0.124818182 10.8285179,0.204151515 10.0262259,0.360757576 C6.64370091,1.015 3.71830178,2.94630303 1.78918937,5.79921212 C0.760398208,7.32045455 0.0803847933,9.00242424 -0.232276913,10.7977273 C-0.281291537,11.0779697 -0.0929721925,11.3448182 0.187701023,11.3937576 C0.471469898,11.442697 0.735632924,11.2546667 0.784647548,10.9744242 C1.07202803,9.32284848 1.69786738,7.77584848 2.6441076,6.37566667 C4.41895293,3.7509697 7.11011376,1.97421212 10.2228003,1.372 C10.9616313,1.22827273 11.7205841,1.15512121 12.4795368,1.15512121 C18.149239,1.15512121 23.0465738,5.19493939 24.1248955,10.7606364 C24.220861,11.2577576 24.3044438,11.7492121 24.3792556,12.2380909 C24.4179514,12.4925758 24.6382592,12.6744242 24.8884918,12.6744242 C24.9148049,12.6739091 24.941118,12.6718485 24.9679471,12.6677273 M24.8694019,24.5697879 C25.7005867,21.4459091 25.9776483,18.2622727 25.7186447,14.8370303 C25.6969751,14.5531818 25.4493223,14.3419697 25.1660693,14.3620606 C24.8812686,14.3831818 24.6681839,14.6304545 24.6898536,14.9137879 C24.9406021,18.2226061 24.6733434,21.2944545 23.8725992,24.3044848 C23.7993352,24.5790606 23.9639212,24.8618788 24.238919,24.9350303 C24.2832902,24.9463636 24.3286932,24.9520303 24.3720324,24.9520303 C24.6000794,24.9525455 24.8085206,24.8000606 24.8694019,24.5697879 M-1.19863892,21.9224242 C1.44092757,18.4410303 1.14271227,16.899697 0.826954908,15.2666667 C0.720670565,14.7206061 0.652566035,14.1580606 0.623673204,13.5924242 C0.609742732,13.3075455 0.37189282,13.0891212 0.082448567,13.1040606 C-0.201836252,13.1184848 -0.421112201,13.3606061 -0.406665786,13.6444545 C-0.375709181,14.2574848 -0.30141333,14.8694848 -0.18635795,15.4624242 C0.107729794,16.9831515 0.340420272,18.1844848 -2.02156866,21.2996061 C-2.19337782,21.5262727 -2.14900668,21.8497879 -1.92147564,22.0208182 C-1.82808988,22.0913939 -1.71870988,22.1253939 -1.61036176,22.1253939 C-1.45454685,22.1269394 -1.30027977,22.0563636 -1.19863892,21.9224242 M-2.24600404,19.8587273 C-0.798266834,17.7296061 -0.984006462,16.7698788 -1.19863892,15.6592121 C-1.90599734,12.0093636 -1.14807647,8.30233333 0.93478708,5.22069697 C3.01816657,2.13906061 6.17780401,0.0532121212 9.83171524,-0.653060606 C11.2758408,-0.935363636 12.788071,-0.985848485 14.2858547,-0.789060606 C14.5701395,-0.755575758 14.8281112,-0.950818182 14.8642273,-1.23260606 C14.9013752,-1.51490909 14.7032529,-1.77351515 14.42,-1.81060606 C12.8133522,-2.02181818 11.1860667,-1.96772727 9.63514081,-1.66430303 C5.71139117,-0.905484848 2.31751542,1.33490909 0.0798688499,4.64475758 C-2.15726178,7.95409091 -2.97142048,11.935697 -2.21143583,15.8554848 C-2.01898894,16.8497273 -1.89206686,17.5055152 -3.0988585,19.2802121 C-3.2593169,19.5156364 -3.19740369,19.8365758 -2.96161755,19.9962727 C-2.87287529,20.0565455 -2.77226632,20.0853939 -2.6721733,20.0853939 C-2.5081033,20.0848788 -2.34609706,20.0060606 -2.24600404,19.8587273 M28.2143647,20.9529091 C28.1978545,20.9529091 28.1803124,20.9518788 28.1612225,20.9508485 C27.8779696,20.9209697 27.6721082,20.6685455 27.6999691,20.3852121 C28.0229497,17.2216667 27.8418535,13.9458182 27.1499734,10.3680909 C26.1944462,5.44118182 22.6339208,1.39363636 17.8578326,-0.195606061 C17.5879942,-0.285757576 17.4414663,-0.577333333 17.5317564,-0.847272727 C17.6220465,-1.11669697 17.9120067,-1.26351515 18.1844248,-1.17284848 C23.3123863,0.533333333 27.1370748,4.88121212 28.1627703,10.1728485 C28.8752882,13.8510303 29.0599959,17.2257879 28.7272124,20.490303 C28.7014153,20.7556061 28.4764639,20.9529091 28.2143647,20.9529091" id="icon-copy-8" fill="#57EEBD" sketch:type="MSShapeGroup" mask="url(#mask-2)"></path>
                    </g>
                </g>
            </g>
        </g>
    </g>
</svg>