<?xml version="1.0" encoding="UTF-8" standalone="no"?>
<svg width="178px" height="157px" viewBox="0 0 178 157" version="1.1" xmlns="http://www.w3.org/2000/svg" xmlns:xlink="http://www.w3.org/1999/xlink" xmlns:sketch="http://www.bohemiancoding.com/sketch/ns">
    <!-- Generator: Sketch 3.4.4 (17249) - http://www.bohemiancoding.com/sketch -->
    <title>iPhone 6 Mockup + iPhone 6 Mockup Copy</title>
    <desc>Created with Sketch.</desc>
    <defs></defs>
    <g id="Page-1" stroke="none" stroke-width="1" fill="none" fill-rule="evenodd" sketch:type="MSPage">
        <g id="Desktop-HD" sketch:type="MSArtboardGroup" transform="translate(-344.000000, -1047.000000)">
            <g id="Section-2" sketch:type="MSLayerGroup" transform="translate(-34.000000, 776.000000)">
                <g id="icon-copy-3">
                    <g id="Group" transform="translate(328.000000, 209.000000)">
                        <g id="iPhone-6-Mockup-+-iPhone-6-Mockup-Copy" transform="translate(51.000000, 63.000000)">
                            <g id="iPhone-6-Mockup">
                                <path d="M0.789685849,69.8551229 C0.789685849,65.9917869 -5.26036447e-16,62.8362707 -5.26036447e-16,62.8362707 L0.789685849,62.8599343 C0.353554398,62.8468653 -5.26036447e-16,59.7005112 -5.26036447e-16,55.8302936 L-5.26036447e-16,58.3666427 C-5.26036447e-16,54.4973483 0.789685849,51.3468553 0.789685849,51.3468553 L-5.26036447e-16,51.3606656 C0.436131452,51.3530384 0.789685849,48.2038129 0.789685849,44.5857269 L0.789685849,51.3468553 C0.789685849,47.6127872 -1.75345482e-16,44.584964 -1.75345482e-16,44.584964 L0.789685849,44.5857269 C0.353554398,44.5853056 -2.7117333e-16,41.4507192 -3.89445988e-16,37.5823711 L-3.11935942e-16,40.1174949 C-4.30180386e-16,36.2500696 0.789685849,33.1134649 0.789685849,33.1134649 L-5.26036447e-16,33.114902 C0.436131452,33.1141083 0.789685849,29.9838361 0.789685849,26.4232687 L0.789685849,33.1134649 C0.789685849,29.4185716 -7.0138193e-16,26.4232694 -7.0138193e-16,26.4232694 L0.789685849,26.4232687 C0.353554398,26.4232691 -7.0138193e-16,23.2820282 -7.0138193e-16,20.8565992 L-7.0138193e-16,26.4232694 C-7.0138193e-16,23.3488823 0.920026562,20.8565992 0.920026562,20.8565992 L-7.0138193e-16,20.8565992 C0.508116639,20.8565992 0.900442726,17.7228721 0.876262399,13.853633 L0.833450012,7.00296614 C0.809279732,3.13533474 3.92717689,0 7.78939341,0 L70.1920842,0 C74.057916,0 77.1917918,3.14105798 77.1917918,6.9933018 L77.1917918,26.0777362 C77.1917918,29.9400301 77.9814776,33.071038 77.9814776,33.071038 L77.1917918,33.071038 C77.6279232,33.071038 77.9814776,36.1952441 77.9814776,40.0652172 L77.9814776,37.4004856 C77.9814776,41.2632641 77.1917918,44.3946648 77.1917918,44.3946648 L77.9814776,44.3946648 C77.5453462,44.3946648 77.1917918,47.5244959 77.1917918,51.392502 L77.1917918,147.924274 C77.1917918,151.789073 74.0543007,154.922112 70.1920842,154.922112 L7.78939341,154.922112 C3.92356167,154.922112 0.789685849,151.779756 0.789685849,147.926923 L0.789685849,69.8551229 Z" id="iPhone6-outline" stroke="#3A3D42" sketch:type="MSShapeGroup"></path>
                                <rect id="Rectangle-8" stroke="#979797" sketch:type="MSShapeGroup" x="8" y="48" width="63" height="17"></rect>
                                <rect id="Rectangle-8-Copy-2" stroke="#979797" sketch:type="MSShapeGroup" x="8" y="28" width="63" height="17"></rect>
                                <rect id="Rectangle-8-Copy" stroke="#979797" sketch:type="MSShapeGroup" x="8" y="68" width="63" height="17"></rect>
                                <rect id="Rectangle-8-Copy-3" stroke="#979797" sketch:type="MSShapeGroup" x="8" y="88" width="63" height="17"></rect>
                                <rect id="Rectangle-8-Copy-4" fill="#3D4045" sketch:type="MSShapeGroup" x="8" y="113" width="63" height="12"></rect>
                                <text id="BUY" sketch:type="MSTextLayer" font-family="Trench" font-size="10" font-style="condensed" font-weight="260" sketch:alignment="middle" letter-spacing="0.714285612" fill="#FFFFFF">
                                    <tspan x="30.5885716" y="122">BUY</tspan>
                                </text>
                                <ellipse id="camera" stroke="#3A3D42" sketch:type="MSShapeGroup" cx="27.0467403" cy="10.4998362" rx="1.18452877" ry="1.1886607"></ellipse>
                                <rect id="speaker" stroke="#3A3D42" sketch:type="MSShapeGroup" x="33.1668057" y="9.3111755" width="14.6091882" height="2.3773214" rx="40"></rect>
                                <g id="icon-copy-2-+-For-Merchants" transform="translate(31.000000, 133.000000)" fill="#3A3D42" sketch:type="MSShapeGroup">
                                    <path d="M16.9739046,8.51906061 C16.9739046,7.97840909 16.9236773,7.45089394 16.8198743,6.90637879 L16.7794349,6.6969697 L16.7740258,6.6969697 C16.3101318,4.64975758 15.0930864,2.79984848 13.4100864,1.59568182 C13.2941773,1.51248485 13.1337076,1.5395303 13.0505106,1.65518182 C12.9678288,1.77083333 12.9941015,1.93181818 13.1097531,2.0145 C14.7438137,3.18389394 15.9108894,5.00289394 16.3129652,7.0050303 L16.3235258,7.05731818 C16.4147076,7.55057576 16.4587531,8.02915152 16.4587531,8.51906061 C16.4587531,8.66124242 16.5738894,8.77663636 16.7163288,8.77663636 C16.8587682,8.77663636 16.9739046,8.66124242 16.9739046,8.51906061 M2.08448033,3.71681818 C3.2726773,2.12474242 5.00358639,1.03957576 6.95910154,0.66119697 C7.45441972,0.564090909 7.96519245,0.515151515 8.4767379,0.515151515 C9.69610154,0.515151515 10.8719349,0.788439394 11.9725561,1.3270303 C12.1008288,1.38962121 12.2551167,1.33707576 12.3171924,1.20906061 C12.3795258,1.08130303 12.3267228,0.927015152 12.1989652,0.864424242 C11.0275106,0.29080303 9.77543487,0 8.4767379,0 C7.93196518,0 7.38796518,0.0522878788 6.8607076,0.155575758 C4.77949548,0.558424242 2.93679851,1.71365152 1.67158639,3.40875758 C1.58632881,3.52286364 1.61002578,3.68410606 1.72387427,3.76910606 C1.7702379,3.80362121 1.82407124,3.82036364 1.877647,3.82036364 C1.95646518,3.82036364 2.03399548,3.78456061 2.08448033,3.71681818 M0.521253056,10.6698182 C0.659571238,10.6365909 0.744828813,10.4975 0.711859117,10.3591818 C0.706707601,10.337803 0.701556086,10.3197727 0.696662147,10.3030303 L0.697177298,10.3030303 L0.643086389,9.99574242 C0.298965177,8.25478788 0.569677298,6.41981818 1.3941773,4.82851515 C1.45960154,4.70230303 1.42354093,4.54672727 1.29732881,4.48130303 C1.17085912,4.41587879 1.04207124,4.46533333 0.976646995,4.59154545 C0.102950026,6.27737879 -0.283671187,8.22104545 0.231480329,10.0676061 L0.231480329,10.0688939 C0.231480329,10.2638788 0.217056086,10.3354848 0.244874268,10.4163636 C0.25079851,10.4338788 0.204434874,10.4526818 0.210874268,10.4797273 C0.239207601,10.5974394 0.344813662,10.6772879 0.461237904,10.6772879 C0.481071238,10.6767727 0.501162147,10.674197 0.521253056,10.6698182 M6.61549548,16.641197 C8.67455609,13.8969848 9.30587427,11.4497576 8.72787427,8.45801515 C8.70082881,8.31840909 8.56508639,8.2269697 8.42599548,8.25401515 C8.28638942,8.28106061 8.1952076,8.4160303 8.22199548,8.55589394 C8.77784396,11.4278636 8.19263184,13.6806212 6.20363184,16.3318485 C6.11811669,16.445697 6.14129851,16.607197 6.255147,16.692197 C6.30151063,16.7269697 6.35585912,16.7437121 6.40943487,16.7437121 C6.4877379,16.7444848 6.56501063,16.7089394 6.61549548,16.641197 M7.74290457,16.8436515 C9.75508639,13.9992424 10.352147,11.4327576 9.73911669,8.26277273 C9.67369245,7.92431818 9.48025306,7.63171212 9.19485912,7.43878788 C8.9102379,7.24637879 8.56740457,7.17657576 8.2302379,7.24225758 C7.89255609,7.30768182 7.60046518,7.50060606 7.40779851,7.786 C7.21538942,8.07113636 7.14532881,8.41448485 7.21075306,8.75216667 C7.44025306,9.93933333 7.44102578,11.0118788 7.21332881,12.0311061 C7.18241972,12.1699394 7.2697379,12.3074848 7.40857124,12.3383939 C7.5481773,12.3695606 7.6852076,12.2819848 7.71611669,12.1431515 C7.95952578,11.0538636 7.95978336,9.9120303 7.71663184,8.65377273 C7.67748033,8.45080303 7.71946518,8.24474242 7.83485912,8.07345455 C7.95025306,7.90216667 8.12540457,7.78651515 8.32837427,7.74710606 C8.53108639,7.70795455 8.73611669,7.74968182 8.90663184,7.86481818 C9.0781773,7.9804697 9.19408639,8.15613636 9.23401063,8.35962121 C9.8176773,11.3784091 9.24611669,13.8269242 7.32279851,16.5453788 C7.24063184,16.6615455 7.26819245,16.8220152 7.38435912,16.904697 C7.42969245,16.9366364 7.48146518,16.9520909 7.53298033,16.9520909 C7.61308639,16.9520909 7.6926773,16.9144848 7.74290457,16.8436515 M5.5772076,16.3027424 C6.35019245,15.3110758 6.90913184,14.3912727 7.2857076,13.4900152 C7.34057124,13.3586515 7.27849548,13.2077121 7.14713184,13.1528485 C7.01525306,13.0974697 6.86482881,13.1595455 6.81022275,13.2911667 C6.4516773,14.1494091 5.91540457,15.0308333 5.17101063,15.9856667 C5.08343487,16.0979697 5.10352578,16.2594697 5.21582881,16.3467879 C5.26296518,16.3836212 5.31860154,16.4013939 5.37398033,16.4013939 C5.4507379,16.4019091 5.52646518,16.3679091 5.5772076,16.3027424 M4.6241773,15.8463182 C6.47151063,13.5402424 7.10025306,11.672303 6.7937379,9.39945455 C6.7746773,9.25804545 6.64408639,9.16093939 6.50396518,9.17871212 C6.36307124,9.19777273 6.26416215,9.32733333 6.28322275,9.46848485 C6.5727379,11.6138333 5.9947379,13.3120303 4.22235912,15.5246061 C4.1332379,15.6358788 4.15126821,15.7981515 4.26228336,15.8865 C4.3096773,15.9246212 4.36660154,15.9431667 4.42326821,15.9431667 C4.49848033,15.9429091 4.57343487,15.9104545 4.6241773,15.8463182 M10.73645,10.5606061 C10.8788894,10.5606061 10.9922228,10.4488182 10.9901621,10.3071515 C10.9790864,9.58207576 10.8989803,8.83304545 10.7501015,8.0665 C10.5394046,6.9774697 9.58354093,6.18722727 8.47622275,6.18722727 C8.32811669,6.18722727 8.1792379,6.20165152 8.03396518,6.22972727 C7.42582881,6.34769697 6.90011669,6.69542424 6.55341972,7.20877273 C6.38702578,7.4555303 6.27085912,7.72804545 6.20826821,8.01884848 C6.17838942,8.15793939 6.2667379,8.2949697 6.40582881,8.32484848 C6.54543487,8.35395455 6.68195003,8.26612121 6.71182881,8.12728788 C6.76051063,7.90087879 6.8511773,7.68837879 6.98048033,7.49648485 C7.24990457,7.09724242 7.65893487,6.82627273 8.13210154,6.73457576 C8.2451773,6.71268182 8.36108639,6.70057576 8.47622275,6.70057576 C9.33704093,6.70057576 10.0806621,7.31360606 10.2444803,8.16051515 C10.3869197,8.89769697 10.46445,9.61993939 10.4750106,10.3148788 C10.4770712,10.4557727 10.5916924,10.5608636 10.7325864,10.5608636 C10.7336167,10.5606061 10.7351621,10.5606061 10.73645,10.5606061 M8.95660154,16.882803 C10.0755106,15.1598788 10.717647,13.4696667 10.9193288,11.7155758 C10.9352985,11.5741667 10.8343288,11.4464091 10.6929197,11.4304394 C10.5509955,11.4144697 10.4237531,11.515697 10.4077834,11.6568485 C10.2151167,13.329803 9.59899548,14.9473788 8.52438942,16.6020455 C8.44685912,16.7215606 8.48085912,16.881 8.60011669,16.9585303 C8.643647,16.9866061 8.69232881,17 8.7402379,17 C8.82446518,17 8.90766215,16.9587879 8.95660154,16.882803 M10.2663743,16.7277424 C11.9104803,13.9101212 12.3859652,11.0955909 11.7621167,7.87022727 C11.5789803,6.92466667 10.9950561,6.1019697 10.1607682,5.61360606 C10.0381621,5.54148485 9.88026821,5.58269697 9.80866215,5.70556061 C9.73679851,5.82842424 9.77801063,5.98606061 9.90061669,6.05792424 C10.607147,6.47159091 11.1011773,7.16781818 11.2564955,7.96810606 C11.854844,11.0636515 11.39945,13.7645909 9.82179851,16.4681061 C9.75045003,16.5912273 9.79191972,16.7488636 9.91426821,16.8202121 C9.95496518,16.8444242 9.99978336,16.8555 10.0440864,16.8555 C10.1321773,16.8555 10.2184652,16.8104242 10.2663743,16.7277424 M3.75640457,15.2819697 C5.60657124,13.0013939 6.13151063,11.3111818 5.69363184,9.04606061 C5.549647,8.30218182 5.7036773,7.5469697 6.127647,6.91951515 C6.55161669,6.29180303 7.19401063,5.86706061 7.93711669,5.72281818 C8.19108639,5.67310606 8.45458639,5.66074242 8.70984396,5.68109091 C8.85022275,5.69242424 8.97591972,5.58681818 8.98725306,5.44515152 C8.99884396,5.30348485 8.8932379,5.17907576 8.75131366,5.16774242 C8.44969245,5.14327273 8.13854093,5.15872727 7.83872275,5.21693939 C6.960647,5.38693939 6.20131366,5.88921212 5.70058639,6.63077273 C5.19985912,7.37207576 5.01775306,8.26457576 5.18775306,9.14342424 C5.59240457,11.2367424 5.09605609,12.8123333 3.35638942,14.9566515 C3.26675306,15.0674091 3.28349548,15.2296818 3.39399548,15.318803 C3.441647,15.3574394 3.49908639,15.3767576 3.55601063,15.3767576 C3.63122275,15.3772727 3.70540457,15.3448182 3.75640457,15.2819697 M11.6693894,16.3127879 C12.0547228,15.5416061 12.3651015,14.7464697 12.5920258,13.9492727 C12.6306621,13.8125 12.5515864,13.6700606 12.4148137,13.6311667 C12.2777834,13.5917576 12.135344,13.6716061 12.0967076,13.8083788 C11.8787985,14.5749242 11.5805258,15.3396667 11.2091015,16.0822576 C11.1454803,16.2095 11.1967379,16.364303 11.3239803,16.4279242 C11.3613288,16.4459545 11.4004803,16.4547121 11.4391167,16.4547121 C11.5333894,16.4552273 11.6240561,16.4034545 11.6693894,16.3127879 M12.8990561,12.5830909 C13.1530258,11.031197 13.1120712,9.42521212 12.7733591,7.6744697 C12.3754046,5.61772727 10.5685106,4.12481818 8.47725306,4.12481818 C8.19726821,4.12481818 7.91676821,4.15186364 7.6437379,4.20518182 C6.4952076,4.42721212 5.50225306,5.0840303 4.84749548,6.05431818 C4.19248033,7.02409091 3.95448033,8.19116667 4.17676821,9.34072727 C4.28907124,9.92130303 4.3192076,10.4086364 4.27181366,10.8748485 C4.25738942,11.0165152 4.36041972,11.1427273 4.50182881,11.1574091 C4.64555609,11.169 4.7697076,11.068803 4.78413184,10.9271364 C4.83719245,10.4094091 4.8047379,9.87416667 4.682647,9.24259091 C4.48611669,8.22825758 4.69629851,7.1984697 5.27429851,6.34254545 C5.85204093,5.48662121 6.72805609,4.90707576 7.74187427,4.71106061 C7.9827076,4.66392424 8.2302379,4.64022727 8.47699548,4.64022727 C10.3225258,4.64022727 11.9166621,5.9574697 12.2677379,7.77260606 C12.5946015,9.46256061 12.6345258,11.0090455 12.3906015,12.5001515 C12.3676773,12.6405303 12.4624652,12.7729242 12.6033591,12.7955909 C12.6175258,12.7981667 12.6309197,12.799197 12.6450864,12.799197 C12.7689803,12.7986818 12.87845,12.709303 12.8990561,12.5830909 M2.97002578,14.6148485 C3.65208639,13.7697424 4.12628336,13.0196818 4.419147,12.3226818 C4.47426821,12.1913182 4.4127076,12.0403788 4.28134396,11.9852576 C4.14972275,11.9303939 3.99929851,11.991697 3.9441773,12.1225455 C3.67037427,12.7744697 3.22038942,13.4838333 2.56898033,14.2913333 C2.47960154,14.4020909 2.49711669,14.5643636 2.60761669,14.6534848 C2.65526821,14.6916061 2.71245003,14.7104091 2.76911669,14.7104091 C2.84458639,14.7104091 2.91928336,14.677697 2.97002578,14.6148485 M2.26581366,13.8452121 C3.9462379,11.723303 3.90245003,10.6373636 3.67088942,9.43834848 C3.42232881,8.15407576 3.68840457,6.84945455 4.4201773,5.76506061 C4.68290457,5.37612121 4.99843487,5.02736364 5.35852578,4.72883333 C5.46799548,4.63790909 5.48319245,4.47563636 5.39226821,4.36616667 C5.30134396,4.25669697 5.13907124,4.24175758 5.02960154,4.33242424 C4.63190457,4.66212121 4.283147,5.04719697 3.99311669,5.47683333 C3.18432881,6.67507576 2.89043487,8.11672727 3.16501063,9.53571212 C3.37828336,10.6389091 3.4097076,11.5708182 1.86193487,13.5250455 C1.77358639,13.6368333 1.79238942,13.7985909 1.9041773,13.8869394 C1.95157124,13.9245455 2.00772275,13.9425758 2.06387427,13.9425758 C2.13985912,13.9428333 2.21507124,13.9093485 2.26581366,13.8452121 M13.1494197,15.5465 C14.1560258,13.006803 14.3577076,10.4431515 13.7846015,7.47819697 C13.6377834,6.71757576 13.3353894,6.01130303 12.8864349,5.37869697 C12.8040106,5.26278788 12.6435409,5.23548485 12.5271167,5.31790909 C12.4112076,5.40033333 12.383647,5.56106061 12.4663288,5.67722727 C12.8725258,6.24930303 13.1460712,6.88834848 13.2787228,7.57633333 C13.8325106,10.4403182 13.6393288,12.9125303 12.6705864,15.3571818 C12.6182985,15.4893182 12.68295,15.6392273 12.815344,15.6915152 C12.8465106,15.7038788 12.8781924,15.7095455 12.9098743,15.7095455 C13.0123894,15.7095455 13.1094955,15.6479848 13.1494197,15.5465 M11.9447379,4.69122727 C12.0354046,4.5815 12.0196924,4.4189697 11.90945,4.32856061 C10.9430258,3.53213636 9.7241773,3.09348485 8.4767379,3.09348485 C8.13055609,3.09348485 7.78411669,3.12671212 7.44746518,3.19265152 C7.03534396,3.2725 6.63146518,3.40051515 6.24741972,3.57360606 C6.11785912,3.63207576 6.05990457,3.78456061 6.11837427,3.91412121 C6.17658639,4.04368182 6.32881366,4.10163636 6.45888942,4.04316667 C6.80661669,3.88656061 7.17237427,3.77065152 7.54585912,3.69827273 C7.85031366,3.63877273 8.16352578,3.60863636 8.4767379,3.60863636 C9.60466215,3.60863636 10.7076015,4.00556061 11.5818137,4.726 C11.6297228,4.76566667 11.6874197,4.78498485 11.7453743,4.78498485 C11.8198137,4.78498485 11.8932228,4.75304545 11.9447379,4.69122727 M14.7113591,8.33386364 C14.8519955,8.31222727 14.9485864,8.18060606 14.9266924,8.0399697 C14.8883137,7.78934848 14.8455561,7.53718182 14.7961015,7.28243939 C14.2108894,4.25772727 11.5534803,2.06240909 8.4767379,2.06240909 C8.06487427,2.06240909 7.65249548,2.10207576 7.25196518,2.18037879 C5.56329851,2.5075 4.10284396,3.47315152 3.13976821,4.89960606 C2.62616215,5.66022727 2.2866773,6.50121212 2.13058639,7.39886364 C2.10611669,7.53898485 2.20013184,7.67240909 2.34025306,7.69687879 C2.48191972,7.72134848 2.61379851,7.62733333 2.63826821,7.48721212 C2.7817379,6.66142424 3.0941773,5.88792424 3.56657124,5.18783333 C4.45263184,3.87548485 5.796147,2.98710606 7.35010154,2.686 C7.71895003,2.61413636 8.09784396,2.57756061 8.4767379,2.57756061 C11.3072379,2.57756061 13.752147,4.5974697 14.2904803,7.38031818 C14.3383894,7.62887879 14.3801167,7.87460606 14.4174652,8.11904545 C14.4367834,8.24628788 14.5467682,8.33721212 14.6716924,8.33721212 C14.6848288,8.33695455 14.6979652,8.33592424 14.7113591,8.33386364 M14.6621621,14.2848939 C15.0771167,12.7229545 15.2154349,11.1311364 15.0861318,9.41851515 C15.0753137,9.27659091 14.9516773,9.17098485 14.8102682,9.1810303 C14.6680864,9.19159091 14.5617076,9.31522727 14.5725258,9.45689394 C14.6977076,11.111303 14.5642834,12.6472273 14.1645258,14.1522424 C14.12795,14.2895303 14.2101167,14.4309394 14.3474046,14.4675152 C14.3695561,14.4731818 14.3922228,14.4760152 14.4138591,14.4760152 C14.5277076,14.4762727 14.6317682,14.4000303 14.6621621,14.2848939 M1.648147,12.9612121 C2.96590457,11.2205152 2.81702578,10.4498485 2.65938942,9.63333333 C2.60632881,9.36030303 2.57232881,9.0790303 2.55790457,8.79621212 C2.55095003,8.65377273 2.4322076,8.54456061 2.2877076,8.5520303 C2.14578336,8.55924242 2.03631366,8.68030303 2.04352578,8.82222727 C2.05898033,9.12874242 2.09607124,9.43474242 2.15351063,9.73121212 C2.30032881,10.4915758 2.41649548,11.0922424 1.23731366,12.649803 C1.15154093,12.7631364 1.17369245,12.9248939 1.28728336,13.0104091 C1.33390457,13.045697 1.38851063,13.062697 1.44260154,13.062697 C1.52038942,13.0634697 1.59740457,13.0281818 1.648147,12.9612121 M1.12526821,11.9293636 C1.84802578,10.864803 1.75529851,10.3849394 1.648147,9.82960606 C1.29501063,8.00468182 1.67338942,6.15116667 2.71322275,4.61034848 C3.75331366,3.0695303 5.3307076,2.02660606 7.15485912,1.6734697 C7.87581366,1.53231818 8.63076821,1.50707576 9.37851063,1.6054697 C9.52043487,1.62221212 9.64922275,1.52459091 9.66725306,1.38369697 C9.68579851,1.24254545 9.58688942,1.11324242 9.44548033,1.09469697 C8.64338942,0.989090909 7.83099548,1.01613636 7.05672275,1.16784848 C5.09785912,1.54725758 3.40352578,2.66745455 2.28641972,4.32237879 C1.16957124,5.97704545 0.763116692,7.96784848 1.14252578,9.92774242 C1.23860154,10.4248636 1.30196518,10.7527576 0.69949548,11.6401061 C0.61938942,11.7578182 0.65029851,11.9182879 0.768010632,11.9981364 C0.812313662,12.0282727 0.862540935,12.042697 0.912510632,12.042697 C0.994419723,12.0424394 1.07529851,12.0030303 1.12526821,11.9293636 M15.832844,12.4764545 C15.8246015,12.4764545 15.815844,12.4759394 15.8063137,12.4754242 C15.6649046,12.4604848 15.5621318,12.3342727 15.5760409,12.1926061 C15.7372834,10.6108333 15.6468743,8.97290909 15.3014652,7.18404545 C14.8244349,4.72059091 13.0469046,2.69681818 10.6625258,1.90219697 C10.5278137,1.85712121 10.4546621,1.71133333 10.4997379,1.57636364 C10.5448137,1.44165152 10.6895712,1.36824242 10.8255712,1.41357576 C13.3856167,2.26666667 15.2950258,4.44060606 15.8070864,7.08642424 C16.1627985,8.92551515 16.2550106,10.6128939 16.0888743,12.2451515 C16.0759955,12.377803 15.9636924,12.4764545 15.832844,12.4764545" id="icon-copy-2"></path>
                                </g>
                            </g>
                            <g id="iPhone-6-Mockup-Copy" transform="translate(98.000000, 0.000000)">
                                <path d="M0.789685849,69.8551229 C0.789685849,65.9917869 -5.26036447e-16,62.8362707 -5.26036447e-16,62.8362707 L0.789685849,62.8599343 C0.353554398,62.8468653 -5.26036447e-16,59.7005112 -5.26036447e-16,55.8302936 L-5.26036447e-16,58.3666427 C-5.26036447e-16,54.4973483 0.789685849,51.3468553 0.789685849,51.3468553 L-5.26036447e-16,51.3606656 C0.436131452,51.3530384 0.789685849,48.2038129 0.789685849,44.5857269 L0.789685849,51.3468553 C0.789685849,47.6127872 -1.75345482e-16,44.584964 -1.75345482e-16,44.584964 L0.789685849,44.5857269 C0.353554398,44.5853056 -2.7117333e-16,41.4507192 -3.89445988e-16,37.5823711 L-3.11935942e-16,40.1174949 C-4.30180386e-16,36.2500696 0.789685849,33.1134649 0.789685849,33.1134649 L-5.26036447e-16,33.114902 C0.436131452,33.1141083 0.789685849,29.9838361 0.789685849,26.4232687 L0.789685849,33.1134649 C0.789685849,29.4185716 -7.0138193e-16,26.4232694 -7.0138193e-16,26.4232694 L0.789685849,26.4232687 C0.353554398,26.4232691 -7.0138193e-16,23.2820282 -7.0138193e-16,20.8565992 L-7.0138193e-16,26.4232694 C-7.0138193e-16,23.3488823 0.920026562,20.8565992 0.920026562,20.8565992 L-7.0138193e-16,20.8565992 C0.508116639,20.8565992 0.900442726,17.7228721 0.876262399,13.853633 L0.833450012,7.00296614 C0.809279732,3.13533474 3.92717689,0 7.78939341,0 L70.1920842,0 C74.057916,0 77.1917918,3.14105798 77.1917918,6.9933018 L77.1917918,26.0777362 C77.1917918,29.9400301 77.9814776,33.071038 77.9814776,33.071038 L77.1917918,33.071038 C77.6279232,33.071038 77.9814776,36.1952441 77.9814776,40.0652172 L77.9814776,37.4004856 C77.9814776,41.2632641 77.1917918,44.3946648 77.1917918,44.3946648 L77.9814776,44.3946648 C77.5453462,44.3946648 77.1917918,47.5244959 77.1917918,51.392502 L77.1917918,147.924274 C77.1917918,151.789073 74.0543007,154.922112 70.1920842,154.922112 L7.78939341,154.922112 C3.92356167,154.922112 0.789685849,151.779756 0.789685849,147.926923 L0.789685849,69.8551229 Z" id="iPhone6-outline" stroke="#3A3D42" fill="#D8D8D8" sketch:type="MSShapeGroup"></path>
                                <g id="Group" transform="translate(8.000000, 38.000000)">
                                    <g id="Rectangle-8-Copy-4-+-BUY" transform="translate(0.000000, 65.000000)">
                                        <rect id="Rectangle-8-Copy-4" fill="#57EEBF" sketch:type="MSShapeGroup" x="0" y="0" width="63" height="12"></rect>
                                        <text id="PAY" sketch:type="MSTextLayer" font-family="Trench" font-size="10" font-style="condensed" font-weight="260" sketch:alignment="middle" letter-spacing="0.714285612" fill="#3D4045">
                                            <tspan x="24.1535716" y="9">PAY</tspan>
                                        </text>
                                    </g>
                                    <rect id="Rectangle-8-Copy-2" stroke="#979797" sketch:type="MSShapeGroup" x="0" y="0" width="63" height="77"></rect>
                                    <path d="M6.5,26.5 L56.5,26.5" id="Line" stroke="#979797" stroke-linecap="square" sketch:type="MSShapeGroup"></path>
                                    <path d="M6.5,37.5 L56.5,37.5" id="Line-Copy" stroke="#979797" stroke-linecap="square" sketch:type="MSShapeGroup"></path>
                                    <path d="M6.5,47.5 L26.5,47.5" id="Line-Copy-2" stroke="#979797" stroke-linecap="square" sketch:type="MSShapeGroup"></path>
                                    <path d="M36.5,47.5 L56.5,47.5" id="Line-Copy-3" stroke="#979797" stroke-linecap="square" sketch:type="MSShapeGroup"></path>
                                </g>
                                <ellipse id="camera" stroke="#3A3D42" sketch:type="MSShapeGroup" cx="27.0467403" cy="10.4998362" rx="1.18452877" ry="1.1886607"></ellipse>
                                <rect id="speaker" stroke="#3A3D42" sketch:type="MSShapeGroup" x="33.1668057" y="9.3111755" width="14.6091882" height="2.3773214" rx="40"></rect>
                                <g id="icon-copy-2-+-For-Merchants" transform="translate(31.000000, 133.000000)" fill="#3A3D42" sketch:type="MSShapeGroup">
                                    <path d="M16.9739046,8.51906061 C16.9739046,7.97840909 16.9236773,7.45089394 16.8198743,6.90637879 L16.7794349,6.6969697 L16.7740258,6.6969697 C16.3101318,4.64975758 15.0930864,2.79984848 13.4100864,1.59568182 C13.2941773,1.51248485 13.1337076,1.5395303 13.0505106,1.65518182 C12.9678288,1.77083333 12.9941015,1.93181818 13.1097531,2.0145 C14.7438137,3.18389394 15.9108894,5.00289394 16.3129652,7.0050303 L16.3235258,7.05731818 C16.4147076,7.55057576 16.4587531,8.02915152 16.4587531,8.51906061 C16.4587531,8.66124242 16.5738894,8.77663636 16.7163288,8.77663636 C16.8587682,8.77663636 16.9739046,8.66124242 16.9739046,8.51906061 M2.08448033,3.71681818 C3.2726773,2.12474242 5.00358639,1.03957576 6.95910154,0.66119697 C7.45441972,0.564090909 7.96519245,0.515151515 8.4767379,0.515151515 C9.69610154,0.515151515 10.8719349,0.788439394 11.9725561,1.3270303 C12.1008288,1.38962121 12.2551167,1.33707576 12.3171924,1.20906061 C12.3795258,1.08130303 12.3267228,0.927015152 12.1989652,0.864424242 C11.0275106,0.29080303 9.77543487,0 8.4767379,0 C7.93196518,0 7.38796518,0.0522878788 6.8607076,0.155575758 C4.77949548,0.558424242 2.93679851,1.71365152 1.67158639,3.40875758 C1.58632881,3.52286364 1.61002578,3.68410606 1.72387427,3.76910606 C1.7702379,3.80362121 1.82407124,3.82036364 1.877647,3.82036364 C1.95646518,3.82036364 2.03399548,3.78456061 2.08448033,3.71681818 M0.521253056,10.6698182 C0.659571238,10.6365909 0.744828813,10.4975 0.711859117,10.3591818 C0.706707601,10.337803 0.701556086,10.3197727 0.696662147,10.3030303 L0.697177298,10.3030303 L0.643086389,9.99574242 C0.298965177,8.25478788 0.569677298,6.41981818 1.3941773,4.82851515 C1.45960154,4.70230303 1.42354093,4.54672727 1.29732881,4.48130303 C1.17085912,4.41587879 1.04207124,4.46533333 0.976646995,4.59154545 C0.102950026,6.27737879 -0.283671187,8.22104545 0.231480329,10.0676061 L0.231480329,10.0688939 C0.231480329,10.2638788 0.217056086,10.3354848 0.244874268,10.4163636 C0.25079851,10.4338788 0.204434874,10.4526818 0.210874268,10.4797273 C0.239207601,10.5974394 0.344813662,10.6772879 0.461237904,10.6772879 C0.481071238,10.6767727 0.501162147,10.674197 0.521253056,10.6698182 M6.61549548,16.641197 C8.67455609,13.8969848 9.30587427,11.4497576 8.72787427,8.45801515 C8.70082881,8.31840909 8.56508639,8.2269697 8.42599548,8.25401515 C8.28638942,8.28106061 8.1952076,8.4160303 8.22199548,8.55589394 C8.77784396,11.4278636 8.19263184,13.6806212 6.20363184,16.3318485 C6.11811669,16.445697 6.14129851,16.607197 6.255147,16.692197 C6.30151063,16.7269697 6.35585912,16.7437121 6.40943487,16.7437121 C6.4877379,16.7444848 6.56501063,16.7089394 6.61549548,16.641197 M7.74290457,16.8436515 C9.75508639,13.9992424 10.352147,11.4327576 9.73911669,8.26277273 C9.67369245,7.92431818 9.48025306,7.63171212 9.19485912,7.43878788 C8.9102379,7.24637879 8.56740457,7.17657576 8.2302379,7.24225758 C7.89255609,7.30768182 7.60046518,7.50060606 7.40779851,7.786 C7.21538942,8.07113636 7.14532881,8.41448485 7.21075306,8.75216667 C7.44025306,9.93933333 7.44102578,11.0118788 7.21332881,12.0311061 C7.18241972,12.1699394 7.2697379,12.3074848 7.40857124,12.3383939 C7.5481773,12.3695606 7.6852076,12.2819848 7.71611669,12.1431515 C7.95952578,11.0538636 7.95978336,9.9120303 7.71663184,8.65377273 C7.67748033,8.45080303 7.71946518,8.24474242 7.83485912,8.07345455 C7.95025306,7.90216667 8.12540457,7.78651515 8.32837427,7.74710606 C8.53108639,7.70795455 8.73611669,7.74968182 8.90663184,7.86481818 C9.0781773,7.9804697 9.19408639,8.15613636 9.23401063,8.35962121 C9.8176773,11.3784091 9.24611669,13.8269242 7.32279851,16.5453788 C7.24063184,16.6615455 7.26819245,16.8220152 7.38435912,16.904697 C7.42969245,16.9366364 7.48146518,16.9520909 7.53298033,16.9520909 C7.61308639,16.9520909 7.6926773,16.9144848 7.74290457,16.8436515 M5.5772076,16.3027424 C6.35019245,15.3110758 6.90913184,14.3912727 7.2857076,13.4900152 C7.34057124,13.3586515 7.27849548,13.2077121 7.14713184,13.1528485 C7.01525306,13.0974697 6.86482881,13.1595455 6.81022275,13.2911667 C6.4516773,14.1494091 5.91540457,15.0308333 5.17101063,15.9856667 C5.08343487,16.0979697 5.10352578,16.2594697 5.21582881,16.3467879 C5.26296518,16.3836212 5.31860154,16.4013939 5.37398033,16.4013939 C5.4507379,16.4019091 5.52646518,16.3679091 5.5772076,16.3027424 M4.6241773,15.8463182 C6.47151063,13.5402424 7.10025306,11.672303 6.7937379,9.39945455 C6.7746773,9.25804545 6.64408639,9.16093939 6.50396518,9.17871212 C6.36307124,9.19777273 6.26416215,9.32733333 6.28322275,9.46848485 C6.5727379,11.6138333 5.9947379,13.3120303 4.22235912,15.5246061 C4.1332379,15.6358788 4.15126821,15.7981515 4.26228336,15.8865 C4.3096773,15.9246212 4.36660154,15.9431667 4.42326821,15.9431667 C4.49848033,15.9429091 4.57343487,15.9104545 4.6241773,15.8463182 M10.73645,10.5606061 C10.8788894,10.5606061 10.9922228,10.4488182 10.9901621,10.3071515 C10.9790864,9.58207576 10.8989803,8.83304545 10.7501015,8.0665 C10.5394046,6.9774697 9.58354093,6.18722727 8.47622275,6.18722727 C8.32811669,6.18722727 8.1792379,6.20165152 8.03396518,6.22972727 C7.42582881,6.34769697 6.90011669,6.69542424 6.55341972,7.20877273 C6.38702578,7.4555303 6.27085912,7.72804545 6.20826821,8.01884848 C6.17838942,8.15793939 6.2667379,8.2949697 6.40582881,8.32484848 C6.54543487,8.35395455 6.68195003,8.26612121 6.71182881,8.12728788 C6.76051063,7.90087879 6.8511773,7.68837879 6.98048033,7.49648485 C7.24990457,7.09724242 7.65893487,6.82627273 8.13210154,6.73457576 C8.2451773,6.71268182 8.36108639,6.70057576 8.47622275,6.70057576 C9.33704093,6.70057576 10.0806621,7.31360606 10.2444803,8.16051515 C10.3869197,8.89769697 10.46445,9.61993939 10.4750106,10.3148788 C10.4770712,10.4557727 10.5916924,10.5608636 10.7325864,10.5608636 C10.7336167,10.5606061 10.7351621,10.5606061 10.73645,10.5606061 M8.95660154,16.882803 C10.0755106,15.1598788 10.717647,13.4696667 10.9193288,11.7155758 C10.9352985,11.5741667 10.8343288,11.4464091 10.6929197,11.4304394 C10.5509955,11.4144697 10.4237531,11.515697 10.4077834,11.6568485 C10.2151167,13.329803 9.59899548,14.9473788 8.52438942,16.6020455 C8.44685912,16.7215606 8.48085912,16.881 8.60011669,16.9585303 C8.643647,16.9866061 8.69232881,17 8.7402379,17 C8.82446518,17 8.90766215,16.9587879 8.95660154,16.882803 M10.2663743,16.7277424 C11.9104803,13.9101212 12.3859652,11.0955909 11.7621167,7.87022727 C11.5789803,6.92466667 10.9950561,6.1019697 10.1607682,5.61360606 C10.0381621,5.54148485 9.88026821,5.58269697 9.80866215,5.70556061 C9.73679851,5.82842424 9.77801063,5.98606061 9.90061669,6.05792424 C10.607147,6.47159091 11.1011773,7.16781818 11.2564955,7.96810606 C11.854844,11.0636515 11.39945,13.7645909 9.82179851,16.4681061 C9.75045003,16.5912273 9.79191972,16.7488636 9.91426821,16.8202121 C9.95496518,16.8444242 9.99978336,16.8555 10.0440864,16.8555 C10.1321773,16.8555 10.2184652,16.8104242 10.2663743,16.7277424 M3.75640457,15.2819697 C5.60657124,13.0013939 6.13151063,11.3111818 5.69363184,9.04606061 C5.549647,8.30218182 5.7036773,7.5469697 6.127647,6.91951515 C6.55161669,6.29180303 7.19401063,5.86706061 7.93711669,5.72281818 C8.19108639,5.67310606 8.45458639,5.66074242 8.70984396,5.68109091 C8.85022275,5.69242424 8.97591972,5.58681818 8.98725306,5.44515152 C8.99884396,5.30348485 8.8932379,5.17907576 8.75131366,5.16774242 C8.44969245,5.14327273 8.13854093,5.15872727 7.83872275,5.21693939 C6.960647,5.38693939 6.20131366,5.88921212 5.70058639,6.63077273 C5.19985912,7.37207576 5.01775306,8.26457576 5.18775306,9.14342424 C5.59240457,11.2367424 5.09605609,12.8123333 3.35638942,14.9566515 C3.26675306,15.0674091 3.28349548,15.2296818 3.39399548,15.318803 C3.441647,15.3574394 3.49908639,15.3767576 3.55601063,15.3767576 C3.63122275,15.3772727 3.70540457,15.3448182 3.75640457,15.2819697 M11.6693894,16.3127879 C12.0547228,15.5416061 12.3651015,14.7464697 12.5920258,13.9492727 C12.6306621,13.8125 12.5515864,13.6700606 12.4148137,13.6311667 C12.2777834,13.5917576 12.135344,13.6716061 12.0967076,13.8083788 C11.8787985,14.5749242 11.5805258,15.3396667 11.2091015,16.0822576 C11.1454803,16.2095 11.1967379,16.364303 11.3239803,16.4279242 C11.3613288,16.4459545 11.4004803,16.4547121 11.4391167,16.4547121 C11.5333894,16.4552273 11.6240561,16.4034545 11.6693894,16.3127879 M12.8990561,12.5830909 C13.1530258,11.031197 13.1120712,9.42521212 12.7733591,7.6744697 C12.3754046,5.61772727 10.5685106,4.12481818 8.47725306,4.12481818 C8.19726821,4.12481818 7.91676821,4.15186364 7.6437379,4.20518182 C6.4952076,4.42721212 5.50225306,5.0840303 4.84749548,6.05431818 C4.19248033,7.02409091 3.95448033,8.19116667 4.17676821,9.34072727 C4.28907124,9.92130303 4.3192076,10.4086364 4.27181366,10.8748485 C4.25738942,11.0165152 4.36041972,11.1427273 4.50182881,11.1574091 C4.64555609,11.169 4.7697076,11.068803 4.78413184,10.9271364 C4.83719245,10.4094091 4.8047379,9.87416667 4.682647,9.24259091 C4.48611669,8.22825758 4.69629851,7.1984697 5.27429851,6.34254545 C5.85204093,5.48662121 6.72805609,4.90707576 7.74187427,4.71106061 C7.9827076,4.66392424 8.2302379,4.64022727 8.47699548,4.64022727 C10.3225258,4.64022727 11.9166621,5.9574697 12.2677379,7.77260606 C12.5946015,9.46256061 12.6345258,11.0090455 12.3906015,12.5001515 C12.3676773,12.6405303 12.4624652,12.7729242 12.6033591,12.7955909 C12.6175258,12.7981667 12.6309197,12.799197 12.6450864,12.799197 C12.7689803,12.7986818 12.87845,12.709303 12.8990561,12.5830909 M2.97002578,14.6148485 C3.65208639,13.7697424 4.12628336,13.0196818 4.419147,12.3226818 C4.47426821,12.1913182 4.4127076,12.0403788 4.28134396,11.9852576 C4.14972275,11.9303939 3.99929851,11.991697 3.9441773,12.1225455 C3.67037427,12.7744697 3.22038942,13.4838333 2.56898033,14.2913333 C2.47960154,14.4020909 2.49711669,14.5643636 2.60761669,14.6534848 C2.65526821,14.6916061 2.71245003,14.7104091 2.76911669,14.7104091 C2.84458639,14.7104091 2.91928336,14.677697 2.97002578,14.6148485 M2.26581366,13.8452121 C3.9462379,11.723303 3.90245003,10.6373636 3.67088942,9.43834848 C3.42232881,8.15407576 3.68840457,6.84945455 4.4201773,5.76506061 C4.68290457,5.37612121 4.99843487,5.02736364 5.35852578,4.72883333 C5.46799548,4.63790909 5.48319245,4.47563636 5.39226821,4.36616667 C5.30134396,4.25669697 5.13907124,4.24175758 5.02960154,4.33242424 C4.63190457,4.66212121 4.283147,5.04719697 3.99311669,5.47683333 C3.18432881,6.67507576 2.89043487,8.11672727 3.16501063,9.53571212 C3.37828336,10.6389091 3.4097076,11.5708182 1.86193487,13.5250455 C1.77358639,13.6368333 1.79238942,13.7985909 1.9041773,13.8869394 C1.95157124,13.9245455 2.00772275,13.9425758 2.06387427,13.9425758 C2.13985912,13.9428333 2.21507124,13.9093485 2.26581366,13.8452121 M13.1494197,15.5465 C14.1560258,13.006803 14.3577076,10.4431515 13.7846015,7.47819697 C13.6377834,6.71757576 13.3353894,6.01130303 12.8864349,5.37869697 C12.8040106,5.26278788 12.6435409,5.23548485 12.5271167,5.31790909 C12.4112076,5.40033333 12.383647,5.56106061 12.4663288,5.67722727 C12.8725258,6.24930303 13.1460712,6.88834848 13.2787228,7.57633333 C13.8325106,10.4403182 13.6393288,12.9125303 12.6705864,15.3571818 C12.6182985,15.4893182 12.68295,15.6392273 12.815344,15.6915152 C12.8465106,15.7038788 12.8781924,15.7095455 12.9098743,15.7095455 C13.0123894,15.7095455 13.1094955,15.6479848 13.1494197,15.5465 M11.9447379,4.69122727 C12.0354046,4.5815 12.0196924,4.4189697 11.90945,4.32856061 C10.9430258,3.53213636 9.7241773,3.09348485 8.4767379,3.09348485 C8.13055609,3.09348485 7.78411669,3.12671212 7.44746518,3.19265152 C7.03534396,3.2725 6.63146518,3.40051515 6.24741972,3.57360606 C6.11785912,3.63207576 6.05990457,3.78456061 6.11837427,3.91412121 C6.17658639,4.04368182 6.32881366,4.10163636 6.45888942,4.04316667 C6.80661669,3.88656061 7.17237427,3.77065152 7.54585912,3.69827273 C7.85031366,3.63877273 8.16352578,3.60863636 8.4767379,3.60863636 C9.60466215,3.60863636 10.7076015,4.00556061 11.5818137,4.726 C11.6297228,4.76566667 11.6874197,4.78498485 11.7453743,4.78498485 C11.8198137,4.78498485 11.8932228,4.75304545 11.9447379,4.69122727 M14.7113591,8.33386364 C14.8519955,8.31222727 14.9485864,8.18060606 14.9266924,8.0399697 C14.8883137,7.78934848 14.8455561,7.53718182 14.7961015,7.28243939 C14.2108894,4.25772727 11.5534803,2.06240909 8.4767379,2.06240909 C8.06487427,2.06240909 7.65249548,2.10207576 7.25196518,2.18037879 C5.56329851,2.5075 4.10284396,3.47315152 3.13976821,4.89960606 C2.62616215,5.66022727 2.2866773,6.50121212 2.13058639,7.39886364 C2.10611669,7.53898485 2.20013184,7.67240909 2.34025306,7.69687879 C2.48191972,7.72134848 2.61379851,7.62733333 2.63826821,7.48721212 C2.7817379,6.66142424 3.0941773,5.88792424 3.56657124,5.18783333 C4.45263184,3.87548485 5.796147,2.98710606 7.35010154,2.686 C7.71895003,2.61413636 8.09784396,2.57756061 8.4767379,2.57756061 C11.3072379,2.57756061 13.752147,4.5974697 14.2904803,7.38031818 C14.3383894,7.62887879 14.3801167,7.87460606 14.4174652,8.11904545 C14.4367834,8.24628788 14.5467682,8.33721212 14.6716924,8.33721212 C14.6848288,8.33695455 14.6979652,8.33592424 14.7113591,8.33386364 M14.6621621,14.2848939 C15.0771167,12.7229545 15.2154349,11.1311364 15.0861318,9.41851515 C15.0753137,9.27659091 14.9516773,9.17098485 14.8102682,9.1810303 C14.6680864,9.19159091 14.5617076,9.31522727 14.5725258,9.45689394 C14.6977076,11.111303 14.5642834,12.6472273 14.1645258,14.1522424 C14.12795,14.2895303 14.2101167,14.4309394 14.3474046,14.4675152 C14.3695561,14.4731818 14.3922228,14.4760152 14.4138591,14.4760152 C14.5277076,14.4762727 14.6317682,14.4000303 14.6621621,14.2848939 M1.648147,12.9612121 C2.96590457,11.2205152 2.81702578,10.4498485 2.65938942,9.63333333 C2.60632881,9.36030303 2.57232881,9.0790303 2.55790457,8.79621212 C2.55095003,8.65377273 2.4322076,8.54456061 2.2877076,8.5520303 C2.14578336,8.55924242 2.03631366,8.68030303 2.04352578,8.82222727 C2.05898033,9.12874242 2.09607124,9.43474242 2.15351063,9.73121212 C2.30032881,10.4915758 2.41649548,11.0922424 1.23731366,12.649803 C1.15154093,12.7631364 1.17369245,12.9248939 1.28728336,13.0104091 C1.33390457,13.045697 1.38851063,13.062697 1.44260154,13.062697 C1.52038942,13.0634697 1.59740457,13.0281818 1.648147,12.9612121 M1.12526821,11.9293636 C1.84802578,10.864803 1.75529851,10.3849394 1.648147,9.82960606 C1.29501063,8.00468182 1.67338942,6.15116667 2.71322275,4.61034848 C3.75331366,3.0695303 5.3307076,2.02660606 7.15485912,1.6734697 C7.87581366,1.53231818 8.63076821,1.50707576 9.37851063,1.6054697 C9.52043487,1.62221212 9.64922275,1.52459091 9.66725306,1.38369697 C9.68579851,1.24254545 9.58688942,1.11324242 9.44548033,1.09469697 C8.64338942,0.989090909 7.83099548,1.01613636 7.05672275,1.16784848 C5.09785912,1.54725758 3.40352578,2.66745455 2.28641972,4.32237879 C1.16957124,5.97704545 0.763116692,7.96784848 1.14252578,9.92774242 C1.23860154,10.4248636 1.30196518,10.7527576 0.69949548,11.6401061 C0.61938942,11.7578182 0.65029851,11.9182879 0.768010632,11.9981364 C0.812313662,12.0282727 0.862540935,12.042697 0.912510632,12.042697 C0.994419723,12.0424394 1.07529851,12.0030303 1.12526821,11.9293636 M15.832844,12.4764545 C15.8246015,12.4764545 15.815844,12.4759394 15.8063137,12.4754242 C15.6649046,12.4604848 15.5621318,12.3342727 15.5760409,12.1926061 C15.7372834,10.6108333 15.6468743,8.97290909 15.3014652,7.18404545 C14.8244349,4.72059091 13.0469046,2.69681818 10.6625258,1.90219697 C10.5278137,1.85712121 10.4546621,1.71133333 10.4997379,1.57636364 C10.5448137,1.44165152 10.6895712,1.36824242 10.8255712,1.41357576 C13.3856167,2.26666667 15.2950258,4.44060606 15.8070864,7.08642424 C16.1627985,8.92551515 16.2550106,10.6128939 16.0888743,12.2451515 C16.0759955,12.377803 15.9636924,12.4764545 15.832844,12.4764545" id="icon-copy-4"></path>
                                </g>
                            </g>
                        </g>
                    </g>
                </g>
            </g>
        </g>
    </g>
</svg>