<?xml version="1.0" encoding="UTF-8" standalone="no"?>
<svg width="159px" height="134px" viewBox="0 0 159 134" version="1.1" xmlns="http://www.w3.org/2000/svg" xmlns:xlink="http://www.w3.org/1999/xlink" xmlns:sketch="http://www.bohemiancoding.com/sketch/ns">
    <!-- Generator: Sketch 3.4.4 (17249) - http://www.bohemiancoding.com/sketch -->
    <title>mail</title>
    <desc>Created with Sketch.</desc>
    <defs></defs>
    <g id="Page-1" stroke="none" stroke-width="1" fill="none" fill-rule="evenodd" sketch:type="MSPage">
        <g id="Desktop-HD" sketch:type="MSArtboardGroup" transform="translate(-952.000000, -1051.000000)">
            <g id="Section-2" sketch:type="MSLayerGroup" transform="translate(-34.000000, 776.000000)">
                <g id="icon-copy-3">
                    <g id="Group" transform="translate(328.000000, 209.000000)">
                        <g id="mail" transform="translate(659.000000, 66.000000)">
                            <g id="Calque_1">
                                <g id="Group">
                                    <path d="M0,132.874048 L157,132.874048 L157,49.5385161 L78.4978535,13.4247258 L0,49.5385161 L0,132.874048 Z" id="Shape" fill="#B2B2B2" sketch:type="MSShapeGroup"></path>
                                    <path d="M13.0794492,106.501742 L142.59065,106.501742 L142.59065,11.3840645 L142.59065,11.4220645 L125.992807,0.125951613 L13.0794492,0.125951613 L13.0794492,106.501742 Z" id="Shape" fill="#FFFFFF" sketch:type="MSShapeGroup"></path>
                                    <g transform="translate(23.611328, 13.177419)" id="Rectangle-path" sketch:type="MSShapeGroup">
                                        <rect fill="#F1F1F1" x="0.116830078" y="0.247306452" width="47.4523301" height="6.20441935"></rect>
                                        <rect fill="#FFFFFF" x="87.8571387" y="0.247306452" width="20.0018613" height="6.20441935"></rect>
                                        <rect fill="#F1F1F1" x="0.116830078" y="10.6896452" width="107.771301" height="3.48864516"></rect>
                                        <rect fill="#F1F1F1" x="0.116830078" y="18.6671935" width="107.771301" height="3.49079032"></rect>
                                        <rect fill="#F1F1F1" x="0.116830078" y="26.6447419" width="107.771301" height="3.49079032"></rect>
                                        <rect fill="#FFFFFF" x="0.116830078" y="34.624129" width="107.771301" height="3.49079032"></rect>
                                        <rect fill="#FFFFFF" x="0.116830078" y="42.6038226" width="107.771301" height="3.4865"></rect>
                                        <rect fill="#FFFFFF" x="0.116830078" y="50.5792258" width="107.771301" height="3.49109677"></rect>
                                        <rect fill="#FFFFFF" x="0.116830078" y="58.5586129" width="107.771301" height="3.49109677"></rect>
                                        <rect fill="#FFFFFF" x="0.116830078" y="66.5361613" width="107.771301" height="3.49079032"></rect>
                                        <rect fill="#FFFFFF" x="0.116830078" y="74.5155484" width="107.771301" height="3.48895161"></rect>
                                    </g>
                                    <path d="M7.15147266,46.2475323 L7.15147266,54.8045806 L13.0794492,59.2677419 L13.0794492,43.3129516 L7.15147266,46.2475323 Z" id="Shape" opacity="0.17" fill="#3C2415" sketch:type="MSShapeGroup"></path>
                                    <path d="M0,132.874048 L157,132.874048 L157,49.5385161 L78.4978535,91.2030645 L0,49.5385161 L0,132.874048 Z" id="Shape" stroke="#3D4045" fill="#D8D8D8" sketch:type="MSShapeGroup"></path>
                                    <path d="M106.976795,0.125951613 L126.051988,11.3819194 L126.051988,0.125951613 L106.976795,0.125951613 Z" id="Shape" opacity="0.2" fill="#B6B6B6" sketch:type="MSShapeGroup"></path>
                                    <path d="M125.992807,0.125951613 L142.59065,11.3819194 L126.051988,11.3819194 L125.992807,0.125951613 Z" id="Shape" fill="#3D4045" sketch:type="MSShapeGroup"></path>
                                    <path d="M156.424658,132.874048 L78.5000013,91.2733338 L0.575341526,132.874048 L156.424658,132.874048 Z" id="Shape" stroke="#3D4045" sketch:type="MSShapeGroup"></path>
                                    <path d="M75.1708027,89.4366774 L0,128.998661 L0,132.874048 L76.1863965,89.977871 L75.1708027,89.4366774 Z" id="Shape" opacity="0.25" fill="#DCDCDC" sketch:type="MSShapeGroup"></path>
                                    <g id="Rectangle-8-Copy-4-+-BUY" transform="translate(47.000000, 51.000000)">
                                        <rect id="Rectangle-8-Copy-4" fill="#57EEBF" sketch:type="MSShapeGroup" x="0" y="0" width="63" height="12"></rect>
                                        <text id="PAY" sketch:type="MSTextLayer" font-family="Trench" font-size="10" font-style="condensed" font-weight="260" sketch:alignment="middle" letter-spacing="0.714285612" fill="#3D4045">
                                            <tspan x="24.1535716" y="9">PAY</tspan>
                                        </text>
                                    </g>
                                </g>
                            </g>
                        </g>
                    </g>
                </g>
            </g>
        </g>
    </g>
</svg>