<?xml version="1.0" encoding="UTF-8" standalone="no"?>
<svg width="603px" height="603px" viewBox="0 0 603 603" version="1.1" xmlns="http://www.w3.org/2000/svg" xmlns:xlink="http://www.w3.org/1999/xlink" xmlns:sketch="http://www.bohemiancoding.com/sketch/ns">
    <!-- Generator: Sketch 3.4.4 (17249) - http://www.bohemiancoding.com/sketch -->
    <title>icon copy 5</title>
    <desc>Created with Sketch.</desc>
    <defs></defs>
    <g id="Page-1" stroke="none" stroke-width="1" fill="none" fill-rule="evenodd" sketch:type="MSPage">
        <g id="Desktop-HD-Copy" sketch:type="MSArtboardGroup" transform="translate(-429.000000, -887.000000)" fill="#57EEBF" opacity="0.177472015">
            <g id="Section-2" sketch:type="MSLayerGroup" transform="translate(-34.000000, 776.000000)">
                <g id="icon-copy-3" sketch:type="MSShapeGroup">
                    <path d="M1065.07438,413.176091 C1065.07438,393.998864 1063.29279,375.287591 1059.61083,355.973318 L1058.17643,348.545455 L1057.98456,348.545455 C1041.52997,275.929636 998.360653,210.312273 938.663653,167.599773 C934.552289,164.648727 928.860334,165.608045 925.909289,169.710273 C922.976516,173.8125 923.908425,179.522727 928.010653,182.4555 C985.971743,223.934591 1027.36861,288.455591 1041.63047,359.472545 L1042.00506,361.327227 C1045.23933,378.823364 1046.80165,395.798727 1046.80165,413.176091 C1046.80165,418.219364 1050.88561,422.312455 1055.93802,422.312455 C1060.99043,422.312455 1065.07438,418.219364 1065.07438,413.176091 M536.937743,242.837727 C579.083789,186.365864 640.480153,147.874364 709.843425,134.453045 C727.412653,131.008636 745.530062,129.272727 763.67488,129.272727 C806.926425,129.272727 848.633925,138.966409 887.673607,158.070545 C892.223516,160.290682 897.696198,158.426864 899.898062,153.886091 C902.109062,149.354455 900.236107,143.881773 895.704471,141.661636 C854.152289,121.314955 809.740425,111 763.67488,111 C744.351471,111 725.055471,112.854682 706.353334,116.518364 C632.531516,130.807636 567.169971,171.784227 522.292153,231.910636 C519.268016,235.958045 520.108562,241.677409 524.146834,244.692409 C525.79138,245.916682 527.70088,246.510545 529.601243,246.510545 C532.396971,246.510545 535.147016,245.240591 536.937743,242.837727 M481.489153,489.464727 C486.39538,488.286136 489.419516,483.3525 488.250062,478.446273 C488.067334,477.687955 487.884607,477.048409 487.711016,476.454545 L487.729289,476.454545 L485.810653,465.554864 C473.604471,403.802182 483.206789,338.714727 512.452289,282.270273 C514.772925,277.793455 513.493834,272.275091 509.017016,269.954455 C504.531062,267.633818 499.96288,269.388 497.642243,273.864818 C466.651698,333.662318 452.938016,402.605318 471.210743,468.103909 L471.210743,468.149591 C471.210743,475.065818 470.699107,477.605727 471.685834,480.474545 C471.895971,481.095818 470.251425,481.762773 470.479834,482.722091 C471.484834,486.897409 475.230743,489.729682 479.36038,489.729682 C480.06388,489.711409 480.776516,489.620045 481.489153,489.464727 M697.655516,701.273045 C770.691607,603.934227 793.084834,517.129636 772.582834,411.010773 C771.623516,406.058864 766.808653,402.815455 761.875016,403.774773 C756.923107,404.734091 753.688834,409.521545 754.639016,414.482591 C774.355289,516.353045 753.597471,596.259682 683.046471,690.300273 C680.013198,694.338545 680.835471,700.067045 684.873743,703.082045 C686.518289,704.315455 688.446062,704.909318 690.346425,704.909318 C693.12388,704.936727 695.864789,703.675909 697.655516,701.273045 M737.64538,708.454227 C809.018653,607.561364 830.196743,516.526636 808.452198,404.085409 C806.131562,392.080227 799.270153,381.701318 789.147062,374.858182 C779.05138,368.033318 766.89088,365.557364 754.93138,367.887136 C742.953607,370.207773 732.592971,377.050909 725.758971,387.174 C718.934107,397.287955 716.449016,409.466727 718.769653,421.4445 C726.910153,463.554 726.937562,501.597818 718.861016,537.750409 C717.764653,542.674909 720.86188,547.553727 725.78638,548.650091 C730.738289,549.755591 735.598834,546.649227 736.695198,541.724727 C745.329062,503.087045 745.338198,462.585545 736.713471,417.954409 C735.324743,410.754955 736.813971,403.445864 740.907062,397.370182 C745.000153,391.2945 751.21288,387.192273 758.412334,385.794409 C765.602653,384.405682 772.875198,385.885773 778.923471,389.969727 C785.008289,394.071955 789.119653,400.302955 790.535789,407.520682 C811.238789,514.598864 790.965198,601.449136 722.743971,697.874318 C719.829471,701.994818 720.807062,707.686773 724.927562,710.619545 C726.535562,711.752455 728.371971,712.300636 730.199243,712.300636 C733.040653,712.300636 735.863789,710.966727 737.64538,708.454227 M660.826834,689.267864 C688.245062,654.092864 708.070971,621.466909 721.428334,589.498773 C723.37438,584.839227 721.172516,579.485318 716.512971,577.539273 C711.835153,575.574955 706.499516,577.776818 704.562607,582.4455 C691.844789,612.887864 672.82288,644.1525 646.418789,678.021 C643.312425,682.004455 644.025062,687.732955 648.008516,690.830182 C649.680471,692.136682 651.653925,692.767091 653.618243,692.767091 C656.34088,692.785364 659.026971,691.579364 660.826834,689.267864 M627.022289,673.078227 C692.548289,591.280364 714.850153,525.023455 703.97788,444.404182 C703.301789,439.388318 698.669653,435.943909 693.699471,436.574318 C688.70188,437.250409 685.193516,441.846 685.869607,446.852727 C696.13888,522.9495 675.63688,583.185545 612.769562,661.666909 C609.60838,665.613818 610.247925,671.369727 614.185698,674.5035 C615.866789,675.855682 617.885925,676.5135 619.895925,676.5135 C622.563743,676.504364 625.222425,675.353182 627.022289,673.078227 M843.828198,485.590909 C848.880607,485.590909 852.900607,481.625727 852.827516,476.600727 C852.434653,450.881864 849.593243,424.313318 844.312425,397.1235 C836.83888,358.494955 802.933834,330.464591 763.656607,330.464591 C758.403198,330.464591 753.12238,330.976227 747.969471,331.972091 C726.398516,336.156545 707.751198,348.490636 695.453653,366.699409 C689.551562,375.452045 685.431062,385.118318 683.210925,395.433273 C682.151107,400.366909 685.28488,405.227455 690.218516,406.287273 C695.170425,407.319682 700.012698,404.204182 701.072516,399.279682 C702.799289,391.248818 706.015289,383.711318 710.601743,376.904727 C720.15838,362.743364 734.666925,353.131909 751.450425,349.879364 C755.461289,349.102773 759.572653,348.673364 763.656607,348.673364 C794.190334,348.673364 820.567016,370.417909 826.377743,400.458273 C831.430153,426.606545 834.180198,452.224909 834.554789,476.874818 C834.62788,481.872409 838.693562,485.600045 843.691153,485.600045 C843.727698,485.590909 843.782516,485.590909 843.828198,485.590909 M780.695925,709.842955 C820.384289,648.729818 843.161243,588.777 850.315016,526.558364 C850.881471,521.5425 847.300016,517.010864 842.284153,516.444409 C837.250016,515.877955 832.736653,519.468545 832.170198,524.475273 C825.336198,583.815955 803.482016,641.192318 765.365107,699.884318 C762.615062,704.123591 763.821062,709.779 768.051198,712.529045 C769.595243,713.524909 771.322016,714 773.02138,714 C776.008971,714 778.960016,712.538182 780.695925,709.842955 M827.154334,704.342864 C885.471743,604.400182 902.337471,504.567136 880.209198,390.161591 C873.713243,356.622 853.001107,327.440455 823.408425,310.117909 C819.059516,307.559727 813.458925,309.021545 810.919016,313.379591 C808.369971,317.737636 809.831789,323.329091 814.180698,325.878136 C839.241743,340.551136 856.765289,365.246727 862.274516,393.633409 C883.498289,503.434227 867.345198,599.238136 811.384971,695.133409 C808.854198,699.500591 810.325153,705.092045 814.664925,707.622818 C816.108471,708.481636 817.698198,708.8745 819.269653,708.8745 C822.394289,708.8745 825.454971,707.275636 827.154334,704.342864 M596.24188,653.060455 C661.86838,572.167091 680.488289,512.214273 664.956471,431.869091 C659.849243,405.483273 665.312789,378.695455 680.351243,356.439273 C695.389698,334.173955 718.175789,319.108091 744.534198,313.991727 C753.542653,312.228409 762.889153,311.789864 771.943289,312.511636 C776.922607,312.913636 781.381153,309.167727 781.783153,304.142727 C782.194289,299.117727 778.44838,294.704864 773.414243,294.302864 C762.715562,293.434909 751.678834,293.983091 741.044107,296.047909 C709.898243,302.077909 682.964243,319.893818 665.203153,346.197409 C647.442062,372.491864 640.982653,404.149364 647.012653,435.322636 C661.36588,509.573864 643.760107,565.461 582.053107,641.521227 C578.873653,645.449864 579.467516,651.205773 583.387016,654.366955 C585.077243,655.737409 587.114653,656.422636 589.133789,656.422636 C591.801607,656.440909 594.43288,655.289727 596.24188,653.060455 M876.920107,689.624182 C890.588107,662.269909 901.597425,634.065955 909.646562,605.788909 C911.017016,600.9375 908.212153,595.885091 903.360743,594.5055 C898.500198,593.107636 893.447789,595.939909 892.077334,600.791318 C884.347971,627.981136 873.768062,655.107 860.593425,681.447136 C858.336743,685.9605 860.15488,691.451455 864.668243,693.708136 C865.993016,694.347682 867.381743,694.658318 868.752198,694.658318 C872.096107,694.676591 875.312107,692.840182 876.920107,689.624182 M920.537107,557.329636 C929.545562,502.283045 928.09288,445.317818 916.078562,383.217955 C901.96288,310.264091 837.871289,257.309727 763.693153,257.309727 C753.761925,257.309727 743.812425,258.269045 734.12788,260.160273 C693.388834,268.035818 658.168153,291.333545 634.943516,325.750227 C611.709743,360.148636 603.267743,401.5455 611.152425,442.321091 C615.13588,462.914455 616.204834,480.200455 614.523743,496.737273 C614.012107,501.762273 617.666653,506.239091 622.682516,506.759864 C627.780607,507.171 632.184334,503.616955 632.695971,498.591955 C634.578062,480.227864 633.42688,461.2425 629.096243,438.840136 C622.125198,402.861136 629.580471,366.333955 650.082471,335.973818 C670.575334,305.613682 701.648107,285.056864 737.608834,278.104091 C746.151334,276.432136 754.93138,275.591591 763.684016,275.591591 C829.146062,275.591591 885.691016,322.314955 898.14388,386.698909 C909.737925,446.642591 911.154062,501.497318 902.501925,554.387727 C901.688789,559.367045 905.050971,564.063136 910.048562,564.867136 C910.551062,564.9585 911.026153,564.995045 911.528653,564.995045 C915.923243,564.976773 919.806198,561.806455 920.537107,557.329636 M568.348562,629.397273 C592.541653,599.420864 609.361698,572.815773 619.749743,548.092773 C621.704925,543.433227 619.521334,538.079318 614.861789,536.124136 C610.193107,534.178091 604.857471,536.352545 602.902289,540.993818 C593.190334,564.117955 577.229107,589.2795 554.123243,617.922 C550.952925,621.850636 551.574198,627.606545 555.493698,630.767727 C557.183925,632.119909 559.212198,632.786864 561.222198,632.786864 C563.899153,632.786864 566.548698,631.626545 568.348562,629.397273 M543.369743,602.097818 C602.97538,526.832455 601.422198,488.313545 593.208607,445.783773 C584.392016,400.229864 593.82988,353.954182 619.786289,315.490091 C629.10538,301.694182 640.297425,289.323545 653.070062,278.7345 C656.953016,275.509364 657.492062,269.753455 654.266925,265.8705 C651.041789,261.987545 645.28588,261.457636 641.402925,264.673636 C627.29638,276.368182 614.925743,290.027045 604.638198,305.2665 C575.950016,347.768864 565.525425,398.905091 575.264789,449.237318 C582.829698,488.368364 583.944334,521.423727 529.043925,590.741318 C525.910153,594.7065 526.577107,600.444136 530.542289,603.577909 C532.22338,604.911818 534.215107,605.551364 536.206834,605.551364 C538.902062,605.5605 541.56988,604.372773 543.369743,602.097818 M929.417653,662.4435 C965.122562,572.358955 972.276334,481.424727 951.947925,376.256045 C946.740198,349.276364 936.014107,324.224455 920.089425,301.785545 C917.165789,297.674182 911.473834,296.705727 907.344198,299.629364 C903.232834,302.553 902.255243,308.254091 905.188016,312.374591 C919.596062,332.666455 929.29888,355.333773 934.004107,379.737 C953.647289,481.324227 946.795016,569.015045 912.433153,655.728273 C910.578471,660.415227 912.871698,665.732591 917.567789,667.587273 C918.673289,668.025818 919.797062,668.226818 920.920834,668.226818 C924.557107,668.226818 928.001516,666.043227 929.417653,662.4435 M886.68688,277.400591 C889.90288,273.5085 889.345562,267.743455 885.435198,264.536591 C851.155562,236.286955 807.922289,220.727727 763.67488,220.727727 C751.395607,220.727727 739.107198,221.906318 727.165971,224.245227 C712.547789,227.0775 698.221971,231.618273 684.599653,237.757909 C680.004062,239.831864 677.94838,245.240591 680.022334,249.836182 C682.087153,254.431773 687.486743,256.487455 692.100607,254.4135 C704.434698,248.858591 717.408334,244.747227 730.656062,242.179909 C741.455243,240.069409 752.565062,239.000455 763.67488,239.000455 C803.683016,239.000455 842.804925,253.079591 873.813743,278.634 C875.513107,280.041 877.559653,280.726227 879.615334,280.726227 C882.255743,280.726227 884.859607,279.593318 886.68688,277.400591 M984.820562,406.607045 C989.809016,405.839591 993.235153,401.170909 992.458562,396.182455 C991.097243,387.292773 989.580607,378.348273 987.826425,369.312409 C967.068607,262.024091 872.808743,184.154864 763.67488,184.154864 C749.065834,184.154864 734.438516,185.561864 720.231471,188.339318 C660.333471,199.9425 608.530289,234.194727 574.369425,284.791909 C556.151516,311.771591 544.109789,341.601818 538.573153,373.442045 C537.705198,378.412227 541.039971,383.144864 546.010153,384.012818 C551.035153,384.880773 555.712971,381.546 556.580925,376.575818 C561.66988,347.284636 572.752289,319.848136 589.50838,295.0155 C620.937471,248.465727 668.592743,216.954409 723.712425,206.274 C736.795698,203.724955 750.235289,202.427591 763.67488,202.427591 C864.07438,202.427591 950.796743,274.074955 969.891743,372.784227 C971.591107,381.600818 973.071198,390.316909 974.395971,398.987318 C975.081198,403.500682 978.982425,406.725818 983.413562,406.725818 C983.879516,406.716682 984.345471,406.680136 984.820562,406.607045 M983.075516,617.693591 C997.794198,562.290682 1002.70043,505.827955 998.113971,445.080273 C997.730243,440.046136 993.344789,436.300227 988.328925,436.656545 C983.285653,437.031136 979.512334,441.416591 979.896062,446.441591 C984.336334,505.124455 979.603698,559.604591 965.424062,612.988364 C964.126698,617.858045 967.041198,622.873909 971.91088,624.171273 C972.696607,624.372273 973.500607,624.472773 974.268062,624.472773 C978.306334,624.481909 981.997425,621.777545 983.075516,617.693591 M521.460743,570.741818 C568.20238,508.998273 562.921562,481.662273 557.330107,452.7 C555.448016,443.015455 554.242016,433.038545 553.73038,423.006818 C553.483698,417.954409 549.271834,414.080591 544.146334,414.345545 C539.112198,414.601364 535.229243,418.895455 535.485062,423.929591 C536.033243,434.801864 537.34888,445.655864 539.386289,456.171818 C544.594016,483.142364 548.714516,504.448364 506.888243,559.695955 C503.845834,563.715955 504.631562,569.453591 508.660698,572.486864 C510.31438,573.738545 512.251289,574.341545 514.169925,574.341545 C516.929107,574.368955 519.66088,573.117273 521.460743,570.741818 M502.913925,534.141545 C528.550562,496.380955 525.261471,479.359909 521.460743,459.661909 C508.934789,394.930773 522.356107,329.1855 559.239607,274.531773 C596.132243,219.878045 652.083334,182.884909 716.787062,170.358955 C742.359743,165.352227 769.138425,164.456864 795.661289,167.946955 C800.695425,168.540818 805.263607,165.078136 805.903153,160.080545 C806.560971,155.073818 803.052607,150.487364 798.036743,149.829545 C769.586107,146.083636 740.770016,147.042955 713.306107,152.424273 C643.824062,165.882136 583.725062,205.616182 544.100653,264.317318 C504.48538,323.009318 490.068198,393.624273 503.526062,463.142864 C506.933925,480.776045 509.181471,492.406636 487.811516,523.881409 C484.970107,528.056727 486.066471,533.748682 490.241789,536.580955 C491.813243,537.649909 493.594834,538.161545 495.367289,538.161545 C498.272653,538.152409 501.141471,536.754545 502.913925,534.141545 M1024.60029,553.547182 C1024.30793,553.547182 1023.99729,553.528909 1023.65924,553.510636 C1018.64338,552.980727 1014.99797,548.503909 1015.49133,543.478909 C1021.2107,487.3725 1018.00383,429.274364 1005.75197,365.822318 C988.831425,278.442136 925.78138,206.657727 841.206062,178.472045 C836.427743,176.873182 833.833016,171.702 835.43188,166.914545 C837.030743,162.136227 842.16538,159.532364 846.98938,161.140364 C937.795698,191.4 1005.52356,268.510909 1023.68665,362.359636 C1036.30397,427.593273 1039.57479,487.445591 1033.68183,545.342727 C1033.22502,550.047955 1029.24156,553.547182 1024.60029,553.547182" id="icon-copy-5"></path>
                </g>
            </g>
        </g>
    </g>
</svg>