<?xml version="1.0" encoding="UTF-8" standalone="no"?>
<svg width="603px" height="603px" viewBox="0 0 603 603" version="1.1" xmlns="http://www.w3.org/2000/svg" xmlns:xlink="http://www.w3.org/1999/xlink" xmlns:sketch="http://www.bohemiancoding.com/sketch/ns">
    <!-- Generator: Sketch 3.4.4 (17249) - http://www.bohemiancoding.com/sketch -->
    <title>icon</title>
    <desc>Created with Sketch.</desc>
    <defs></defs>
    <g id="Page-1" stroke="none" stroke-width="1" fill="none" fill-rule="evenodd" sketch:type="MSPage">
        <g id="Desktop-HD-Copy" sketch:type="MSArtboardGroup" transform="translate(-419.000000, -87.000000)" fill="#FFFFFF" opacity="0.05">
            <g id="Section1" sketch:type="MSLayerGroup" transform="translate(270.000000, 87.000000)">
                <path data-start="0" data-duration="10" d="M751.07438,302.176091 C751.07438,282.998864 749.292789,264.287591 745.610834,244.973318 L744.176425,237.545455 L743.984562,237.545455 C727.529971,164.929636 684.360653,99.3122727 624.663653,56.5997727 C620.552289,53.6487273 614.860334,54.6080455 611.909289,58.7102727 C608.976516,62.8125 609.908425,68.5227273 614.010653,71.4555 C671.971743,112.934591 713.368607,177.455591 727.630471,248.472545 L728.005062,250.327227 C731.239334,267.823364 732.801653,284.798727 732.801653,302.176091 C732.801653,307.219364 736.885607,311.312455 741.938016,311.312455 C746.990425,311.312455 751.07438,307.219364 751.07438,302.176091 M222.937743,131.837727 C265.083789,75.3658636 326.480153,36.8743636 395.843425,23.4530455 C413.412653,20.0086364 431.530062,18.2727273 449.67488,18.2727273 C492.926425,18.2727273 534.633925,27.9664091 573.673607,47.0705455 C578.223516,49.2906818 583.696198,47.4268636 585.898062,42.8860909 C588.109062,38.3544545 586.236107,32.8817727 581.704471,30.6616364 C540.152289,10.3149545 495.740425,0 449.67488,0 C430.351471,0 411.055471,1.85468182 392.353334,5.51836364 C318.531516,19.8076364 253.169971,60.7842273 208.292153,120.910636 C205.268016,124.958045 206.108562,130.677409 210.146834,133.692409 C211.79138,134.916682 213.70088,135.510545 215.601243,135.510545 C218.396971,135.510545 221.147016,134.240591 222.937743,131.837727 M167.489153,378.464727 C172.39538,377.286136 175.419516,372.3525 174.250062,367.446273 C174.067334,366.687955 173.884607,366.048409 173.711016,365.454545 L173.729289,365.454545 L171.810653,354.554864 C159.604471,292.802182 169.206789,227.714727 198.452289,171.270273 C200.772925,166.793455 199.493834,161.275091 195.017016,158.954455 C190.531062,156.633818 185.96288,158.388 183.642243,162.864818 C152.651698,222.662318 138.938016,291.605318 157.210743,357.103909 L157.210743,357.149591 C157.210743,364.065818 156.699107,366.605727 157.685834,369.474545 C157.895971,370.095818 156.251425,370.762773 156.479834,371.722091 C157.484834,375.897409 161.230743,378.729682 165.36038,378.729682 C166.06388,378.711409 166.776516,378.620045 167.489153,378.464727 M383.655516,590.273045 C456.691607,492.934227 479.084834,406.129636 458.582834,300.010773 C457.623516,295.058864 452.808653,291.815455 447.875016,292.774773 C442.923107,293.734091 439.688834,298.521545 440.639016,303.482591 C460.355289,405.353045 439.597471,485.259682 369.046471,579.300273 C366.013198,583.338545 366.835471,589.067045 370.873743,592.082045 C372.518289,593.315455 374.446062,593.909318 376.346425,593.909318 C379.12388,593.936727 381.864789,592.675909 383.655516,590.273045 M423.64538,597.454227 C495.018653,496.561364 516.196743,405.526636 494.452198,293.085409 C492.131562,281.080227 485.270153,270.701318 475.147062,263.858182 C465.05138,257.033318 452.89088,254.557364 440.93138,256.887136 C428.953607,259.207773 418.592971,266.050909 411.758971,276.174 C404.934107,286.287955 402.449016,298.466727 404.769653,310.4445 C412.910153,352.554 412.937562,390.597818 404.861016,426.750409 C403.764653,431.674909 406.86188,436.553727 411.78638,437.650091 C416.738289,438.755591 421.598834,435.649227 422.695198,430.724727 C431.329062,392.087045 431.338198,351.585545 422.713471,306.954409 C421.324743,299.754955 422.813971,292.445864 426.907062,286.370182 C431.000153,280.2945 437.21288,276.192273 444.412334,274.794409 C451.602653,273.405682 458.875198,274.885773 464.923471,278.969727 C471.008289,283.071955 475.119653,289.302955 476.535789,296.520682 C497.238789,403.598864 476.965198,490.449136 408.743971,586.874318 C405.829471,590.994818 406.807062,596.686773 410.927562,599.619545 C412.535562,600.752455 414.371971,601.300636 416.199243,601.300636 C419.040653,601.300636 421.863789,599.966727 423.64538,597.454227 M346.826834,578.267864 C374.245062,543.092864 394.070971,510.466909 407.428334,478.498773 C409.37438,473.839227 407.172516,468.485318 402.512971,466.539273 C397.835153,464.574955 392.499516,466.776818 390.562607,471.4455 C377.844789,501.887864 358.82288,533.1525 332.418789,567.021 C329.312425,571.004455 330.025062,576.732955 334.008516,579.830182 C335.680471,581.136682 337.653925,581.767091 339.618243,581.767091 C342.34088,581.785364 345.026971,580.579364 346.826834,578.267864 M313.022289,562.078227 C378.548289,480.280364 400.850153,414.023455 389.97788,333.404182 C389.301789,328.388318 384.669653,324.943909 379.699471,325.574318 C374.70188,326.250409 371.193516,330.846 371.869607,335.852727 C382.13888,411.9495 361.63688,472.185545 298.769562,550.666909 C295.60838,554.613818 296.247925,560.369727 300.185698,563.5035 C301.866789,564.855682 303.885925,565.5135 305.895925,565.5135 C308.563743,565.504364 311.222425,564.353182 313.022289,562.078227 M529.828198,374.590909 C534.880607,374.590909 538.900607,370.625727 538.827516,365.600727 C538.434653,339.881864 535.593243,313.313318 530.312425,286.1235 C522.83888,247.494955 488.933834,219.464591 449.656607,219.464591 C444.403198,219.464591 439.12238,219.976227 433.969471,220.972091 C412.398516,225.156545 393.751198,237.490636 381.453653,255.699409 C375.551562,264.452045 371.431062,274.118318 369.210925,284.433273 C368.151107,289.366909 371.28488,294.227455 376.218516,295.287273 C381.170425,296.319682 386.012698,293.204182 387.072516,288.279682 C388.799289,280.248818 392.015289,272.711318 396.601743,265.904727 C406.15838,251.743364 420.666925,242.131909 437.450425,238.879364 C441.461289,238.102773 445.572653,237.673364 449.656607,237.673364 C480.190334,237.673364 506.567016,259.417909 512.377743,289.458273 C517.430153,315.606545 520.180198,341.224909 520.554789,365.874818 C520.62788,370.872409 524.693562,374.600045 529.691153,374.600045 C529.727698,374.590909 529.782516,374.590909 529.828198,374.590909 M466.695925,598.842955 C506.384289,537.729818 529.161243,477.777 536.315016,415.558364 C536.881471,410.5425 533.300016,406.010864 528.284153,405.444409 C523.250016,404.877955 518.736653,408.468545 518.170198,413.475273 C511.336198,472.815955 489.482016,530.192318 451.365107,588.884318 C448.615062,593.123591 449.821062,598.779 454.051198,601.529045 C455.595243,602.524909 457.322016,603 459.02138,603 C462.008971,603 464.960016,601.538182 466.695925,598.842955 M513.154334,593.342864 C571.471743,493.400182 588.337471,393.567136 566.209198,279.161591 C559.713243,245.622 539.001107,216.440455 509.408425,199.117909 C505.059516,196.559727 499.458925,198.021545 496.919016,202.379591 C494.369971,206.737636 495.831789,212.329091 500.180698,214.878136 C525.241743,229.551136 542.765289,254.246727 548.274516,282.633409 C569.498289,392.434227 553.345198,488.238136 497.384971,584.133409 C494.854198,588.500591 496.325153,594.092045 500.664925,596.622818 C502.108471,597.481636 503.698198,597.8745 505.269653,597.8745 C508.394289,597.8745 511.454971,596.275636 513.154334,593.342864 M282.24188,542.060455 C347.86838,461.167091 366.488289,401.214273 350.956471,320.869091 C345.849243,294.483273 351.312789,267.695455 366.351243,245.439273 C381.389698,223.173955 404.175789,208.108091 430.534198,202.991727 C439.542653,201.228409 448.889153,200.789864 457.943289,201.511636 C462.922607,201.913636 467.381153,198.167727 467.783153,193.142727 C468.194289,188.117727 464.44838,183.704864 459.414243,183.302864 C448.715562,182.434909 437.678834,182.983091 427.044107,185.047909 C395.898243,191.077909 368.964243,208.893818 351.203153,235.197409 C333.442062,261.491864 326.982653,293.149364 333.012653,324.322636 C347.36588,398.573864 329.760107,454.461 268.053107,530.521227 C264.873653,534.449864 265.467516,540.205773 269.387016,543.366955 C271.077243,544.737409 273.114653,545.422636 275.133789,545.422636 C277.801607,545.440909 280.43288,544.289727 282.24188,542.060455 M562.920107,578.624182 C576.588107,551.269909 587.597425,523.065955 595.646562,494.788909 C597.017016,489.9375 594.212153,484.885091 589.360743,483.5055 C584.500198,482.107636 579.447789,484.939909 578.077334,489.791318 C570.347971,516.981136 559.768062,544.107 546.593425,570.447136 C544.336743,574.9605 546.15488,580.451455 550.668243,582.708136 C551.993016,583.347682 553.381743,583.658318 554.752198,583.658318 C558.096107,583.676591 561.312107,581.840182 562.920107,578.624182 M606.537107,446.329636 C615.545562,391.283045 614.09288,334.317818 602.078562,272.217955 C587.96288,199.264091 523.871289,146.309727 449.693153,146.309727 C439.761925,146.309727 429.812425,147.269045 420.12788,149.160273 C379.388834,157.035818 344.168153,180.333545 320.943516,214.750227 C297.709743,249.148636 289.267743,290.5455 297.152425,331.321091 C301.13588,351.914455 302.204834,369.200455 300.523743,385.737273 C300.012107,390.762273 303.666653,395.239091 308.682516,395.759864 C313.780607,396.171 318.184334,392.616955 318.695971,387.591955 C320.578062,369.227864 319.42688,350.2425 315.096243,327.840136 C308.125198,291.861136 315.580471,255.333955 336.082471,224.973818 C356.575334,194.613682 387.648107,174.056864 423.608834,167.104091 C432.151334,165.432136 440.93138,164.591591 449.684016,164.591591 C515.146062,164.591591 571.691016,211.314955 584.14388,275.698909 C595.737925,335.642591 597.154062,390.497318 588.501925,443.387727 C587.688789,448.367045 591.050971,453.063136 596.048562,453.867136 C596.551062,453.9585 597.026153,453.995045 597.528653,453.995045 C601.923243,453.976773 605.806198,450.806455 606.537107,446.329636 M254.348562,518.397273 C278.541653,488.420864 295.361698,461.815773 305.749743,437.092773 C307.704925,432.433227 305.521334,427.079318 300.861789,425.124136 C296.193107,423.178091 290.857471,425.352545 288.902289,429.993818 C279.190334,453.117955 263.229107,478.2795 240.123243,506.922 C236.952925,510.850636 237.574198,516.606545 241.493698,519.767727 C243.183925,521.119909 245.212198,521.786864 247.222198,521.786864 C249.899153,521.786864 252.548698,520.626545 254.348562,518.397273 M229.369743,491.097818 C288.97538,415.832455 287.422198,377.313545 279.208607,334.783773 C270.392016,289.229864 279.82988,242.954182 305.786289,204.490091 C315.10538,190.694182 326.297425,178.323545 339.070062,167.7345 C342.953016,164.509364 343.492062,158.753455 340.266925,154.8705 C337.041789,150.987545 331.28588,150.457636 327.402925,153.673636 C313.29638,165.368182 300.925743,179.027045 290.638198,194.2665 C261.950016,236.768864 251.525425,287.905091 261.264789,338.237318 C268.829698,377.368364 269.944334,410.423727 215.043925,479.741318 C211.910153,483.7065 212.577107,489.444136 216.542289,492.577909 C218.22338,493.911818 220.215107,494.551364 222.206834,494.551364 C224.902062,494.5605 227.56988,493.372773 229.369743,491.097818 M615.417653,551.4435 C651.122562,461.358955 658.276334,370.424727 637.947925,265.256045 C632.740198,238.276364 622.014107,213.224455 606.089425,190.785545 C603.165789,186.674182 597.473834,185.705727 593.344198,188.629364 C589.232834,191.553 588.255243,197.254091 591.188016,201.374591 C605.596062,221.666455 615.29888,244.333773 620.004107,268.737 C639.647289,370.324227 632.795016,458.015045 598.433153,544.728273 C596.578471,549.415227 598.871698,554.732591 603.567789,556.587273 C604.673289,557.025818 605.797062,557.226818 606.920834,557.226818 C610.557107,557.226818 614.001516,555.043227 615.417653,551.4435 M572.68688,166.400591 C575.90288,162.5085 575.345562,156.743455 571.435198,153.536591 C537.155562,125.286955 493.922289,109.727727 449.67488,109.727727 C437.395607,109.727727 425.107198,110.906318 413.165971,113.245227 C398.547789,116.0775 384.221971,120.618273 370.599653,126.757909 C366.004062,128.831864 363.94838,134.240591 366.022334,138.836182 C368.087153,143.431773 373.486743,145.487455 378.100607,143.4135 C390.434698,137.858591 403.408334,133.747227 416.656062,131.179909 C427.455243,129.069409 438.565062,128.000455 449.67488,128.000455 C489.683016,128.000455 528.804925,142.079591 559.813743,167.634 C561.513107,169.041 563.559653,169.726227 565.615334,169.726227 C568.255743,169.726227 570.859607,168.593318 572.68688,166.400591 M670.820562,295.607045 C675.809016,294.839591 679.235153,290.170909 678.458562,285.182455 C677.097243,276.292773 675.580607,267.348273 673.826425,258.312409 C653.068607,151.024091 558.808743,73.1548636 449.67488,73.1548636 C435.065834,73.1548636 420.438516,74.5618636 406.231471,77.3393182 C346.333471,88.9425 294.530289,123.194727 260.369425,173.791909 C242.151516,200.771591 230.109789,230.601818 224.573153,262.442045 C223.705198,267.412227 227.039971,272.144864 232.010153,273.012818 C237.035153,273.880773 241.712971,270.546 242.580925,265.575818 C247.66988,236.284636 258.752289,208.848136 275.50838,184.0155 C306.937471,137.465727 354.592743,105.954409 409.712425,95.274 C422.795698,92.7249545 436.235289,91.4275909 449.67488,91.4275909 C550.07438,91.4275909 636.796743,163.074955 655.891743,261.784227 C657.591107,270.600818 659.071198,279.316909 660.395971,287.987318 C661.081198,292.500682 664.982425,295.725818 669.413562,295.725818 C669.879516,295.716682 670.345471,295.680136 670.820562,295.607045 M669.075516,506.693591 C683.794198,451.290682 688.700425,394.827955 684.113971,334.080273 C683.730243,329.046136 679.344789,325.300227 674.328925,325.656545 C669.285653,326.031136 665.512334,330.416591 665.896062,335.441591 C670.336334,394.124455 665.603698,448.604591 651.424062,501.988364 C650.126698,506.858045 653.041198,511.873909 657.91088,513.171273 C658.696607,513.372273 659.500607,513.472773 660.268062,513.472773 C664.306334,513.481909 667.997425,510.777545 669.075516,506.693591 M207.460743,459.741818 C254.20238,397.998273 248.921562,370.662273 243.330107,341.7 C241.448016,332.015455 240.242016,322.038545 239.73038,312.006818 C239.483698,306.954409 235.271834,303.080591 230.146334,303.345545 C225.112198,303.601364 221.229243,307.895455 221.485062,312.929591 C222.033243,323.801864 223.34888,334.655864 225.386289,345.171818 C230.594016,372.142364 234.714516,393.448364 192.888243,448.695955 C189.845834,452.715955 190.631562,458.453591 194.660698,461.486864 C196.31438,462.738545 198.251289,463.341545 200.169925,463.341545 C202.929107,463.368955 205.66088,462.117273 207.460743,459.741818 M188.913925,423.141545 C214.550562,385.380955 211.261471,368.359909 207.460743,348.661909 C194.934789,283.930773 208.356107,218.1855 245.239607,163.531773 C282.132243,108.878045 338.083334,71.8849091 402.787062,59.3589545 C428.359743,54.3522273 455.138425,53.4568636 481.661289,56.9469545 C486.695425,57.5408182 491.263607,54.0781364 491.903153,49.0805455 C492.560971,44.0738182 489.052607,39.4873636 484.036743,38.8295455 C455.586107,35.0836364 426.770016,36.0429545 399.306107,41.4242727 C329.824062,54.8821364 269.725062,94.6161818 230.100653,153.317318 C190.48538,212.009318 176.068198,282.624273 189.526062,352.142864 C192.933925,369.776045 195.181471,381.406636 173.811516,412.881409 C170.970107,417.056727 172.066471,422.748682 176.241789,425.580955 C177.813243,426.649909 179.594834,427.161545 181.367289,427.161545 C184.272653,427.152409 187.141471,425.754545 188.913925,423.141545 M710.600289,442.547182 C710.307925,442.547182 709.997289,442.528909 709.659243,442.510636 C704.64338,441.980727 700.997971,437.503909 701.491334,432.478909 C707.210698,376.3725 704.003834,318.274364 691.751971,254.822318 C674.831425,167.442136 611.78138,95.6577273 527.206062,67.4720455 C522.427743,65.8731818 519.833016,60.702 521.43188,55.9145455 C523.030743,51.1362273 528.16538,48.5323636 532.98938,50.1403636 C623.795698,80.4 691.523562,157.510909 709.686653,251.359636 C722.303971,316.593273 725.574789,376.445591 719.681834,434.342727 C719.225016,439.047955 715.241562,442.547182 710.600289,442.547182" id="icon" sketch:type="MSShapeGroup"></path>
            </g>
        </g>
    </g>
</svg>
