<?xml version="1.0" encoding="UTF-8" standalone="no"?>
<svg width="603px" height="603px" viewBox="0 0 603 603" version="1.1" xmlns="http://www.w3.org/2000/svg" xmlns:xlink="http://www.w3.org/1999/xlink" xmlns:sketch="http://www.bohemiancoding.com/sketch/ns">
    <!-- Generator: Sketch 3.4.4 (17249) - http://www.bohemiancoding.com/sketch -->
    <title>e83a5110123933.5624908b172d7</title>
    <desc>Created with Sketch.</desc>
    <defs>
        <linearGradient x1="63.1945734%" y1="7.95424903%" x2="32.588313%" y2="94.6480469%" id="linearGradient-1">
            <stop stop-color="#90EEF8" offset="0%"></stop>
            <stop stop-color="#57EEBF" offset="100%"></stop>
        </linearGradient>
        <path d="M602.07438,302.176091 C602.07438,282.998864 600.292789,264.287591 596.610834,244.973318 L595.176425,237.545455 L594.984562,237.545455 C578.529971,164.929636 535.360653,99.3122727 475.663653,56.5997727 C471.552289,53.6487273 465.860334,54.6080455 462.909289,58.7102727 C459.976516,62.8125 460.908425,68.5227273 465.010653,71.4555 C522.971743,112.934591 564.368607,177.455591 578.630471,248.472545 L579.005062,250.327227 C582.239334,267.823364 583.801653,284.798727 583.801653,302.176091 C583.801653,307.219364 587.885607,311.312455 592.938016,311.312455 C597.990425,311.312455 602.07438,307.219364 602.07438,302.176091 M73.9377434,131.837727 C116.083789,75.3658636 177.480153,36.8743636 246.843425,23.4530455 C264.412653,20.0086364 282.530062,18.2727273 300.67488,18.2727273 C343.926425,18.2727273 385.633925,27.9664091 424.673607,47.0705455 C429.223516,49.2906818 434.696198,47.4268636 436.898062,42.8860909 C439.109062,38.3544545 437.236107,32.8817727 432.704471,30.6616364 C391.152289,10.3149545 346.740425,0 300.67488,0 C281.351471,0 262.055471,1.85468182 243.353334,5.51836364 C169.531516,19.8076364 104.169971,60.7842273 59.2921525,120.910636 C56.2680161,124.958045 57.1085616,130.677409 61.1468343,133.692409 C62.7913798,134.916682 64.7008798,135.510545 66.6012434,135.510545 C69.3969707,135.510545 72.1470161,134.240591 73.9377434,131.837727 M18.4891525,378.464727 C23.3953798,377.286136 26.4195161,372.3525 25.2500616,367.446273 C25.0673343,366.687955 24.8846071,366.048409 24.7110161,365.454545 L24.7292889,365.454545 L22.8106525,354.554864 C10.6044707,292.802182 20.2067889,227.714727 49.4522889,171.270273 C51.7729252,166.793455 50.4938343,161.275091 46.0170161,158.954455 C41.5310616,156.633818 36.9628798,158.388 34.6422434,162.864818 C3.65169797,222.662318 -10.0619839,291.605318 8.21074342,357.103909 L8.21074342,357.149591 C8.21074342,364.065818 7.69910706,366.605727 8.68583433,369.474545 C8.89597069,370.095818 7.25142524,370.762773 7.47983433,371.722091 C8.48483433,375.897409 12.2307434,378.729682 16.3603798,378.729682 C17.0638798,378.711409 17.7765161,378.620045 18.4891525,378.464727 M234.655516,590.273045 C307.691607,492.934227 330.084834,406.129636 309.582834,300.010773 C308.623516,295.058864 303.808653,291.815455 298.875016,292.774773 C293.923107,293.734091 290.688834,298.521545 291.639016,303.482591 C311.355289,405.353045 290.597471,485.259682 220.046471,579.300273 C217.013198,583.338545 217.835471,589.067045 221.873743,592.082045 C223.518289,593.315455 225.446062,593.909318 227.346425,593.909318 C230.12388,593.936727 232.864789,592.675909 234.655516,590.273045 M274.64538,597.454227 C346.018653,496.561364 367.196743,405.526636 345.452198,293.085409 C343.131562,281.080227 336.270153,270.701318 326.147062,263.858182 C316.05138,257.033318 303.89088,254.557364 291.93138,256.887136 C279.953607,259.207773 269.592971,266.050909 262.758971,276.174 C255.934107,286.287955 253.449016,298.466727 255.769653,310.4445 C263.910153,352.554 263.937562,390.597818 255.861016,426.750409 C254.764653,431.674909 257.86188,436.553727 262.78638,437.650091 C267.738289,438.755591 272.598834,435.649227 273.695198,430.724727 C282.329062,392.087045 282.338198,351.585545 273.713471,306.954409 C272.324743,299.754955 273.813971,292.445864 277.907062,286.370182 C282.000153,280.2945 288.21288,276.192273 295.412334,274.794409 C302.602653,273.405682 309.875198,274.885773 315.923471,278.969727 C322.008289,283.071955 326.119653,289.302955 327.535789,296.520682 C348.238789,403.598864 327.965198,490.449136 259.743971,586.874318 C256.829471,590.994818 257.807062,596.686773 261.927562,599.619545 C263.535562,600.752455 265.371971,601.300636 267.199243,601.300636 C270.040653,601.300636 272.863789,599.966727 274.64538,597.454227 M197.826834,578.267864 C225.245062,543.092864 245.070971,510.466909 258.428334,478.498773 C260.37438,473.839227 258.172516,468.485318 253.512971,466.539273 C248.835153,464.574955 243.499516,466.776818 241.562607,471.4455 C228.844789,501.887864 209.82288,533.1525 183.418789,567.021 C180.312425,571.004455 181.025062,576.732955 185.008516,579.830182 C186.680471,581.136682 188.653925,581.767091 190.618243,581.767091 C193.34088,581.785364 196.026971,580.579364 197.826834,578.267864 M164.022289,562.078227 C229.548289,480.280364 251.850153,414.023455 240.97788,333.404182 C240.301789,328.388318 235.669653,324.943909 230.699471,325.574318 C225.70188,326.250409 222.193516,330.846 222.869607,335.852727 C233.13888,411.9495 212.63688,472.185545 149.769562,550.666909 C146.60838,554.613818 147.247925,560.369727 151.185698,563.5035 C152.866789,564.855682 154.885925,565.5135 156.895925,565.5135 C159.563743,565.504364 162.222425,564.353182 164.022289,562.078227 M380.828198,374.590909 C385.880607,374.590909 389.900607,370.625727 389.827516,365.600727 C389.434653,339.881864 386.593243,313.313318 381.312425,286.1235 C373.83888,247.494955 339.933834,219.464591 300.656607,219.464591 C295.403198,219.464591 290.12238,219.976227 284.969471,220.972091 C263.398516,225.156545 244.751198,237.490636 232.453653,255.699409 C226.551562,264.452045 222.431062,274.118318 220.210925,284.433273 C219.151107,289.366909 222.28488,294.227455 227.218516,295.287273 C232.170425,296.319682 237.012698,293.204182 238.072516,288.279682 C239.799289,280.248818 243.015289,272.711318 247.601743,265.904727 C257.15838,251.743364 271.666925,242.131909 288.450425,238.879364 C292.461289,238.102773 296.572653,237.673364 300.656607,237.673364 C331.190334,237.673364 357.567016,259.417909 363.377743,289.458273 C368.430153,315.606545 371.180198,341.224909 371.554789,365.874818 C371.62788,370.872409 375.693562,374.600045 380.691153,374.600045 C380.727698,374.590909 380.782516,374.590909 380.828198,374.590909 M317.695925,598.842955 C357.384289,537.729818 380.161243,477.777 387.315016,415.558364 C387.881471,410.5425 384.300016,406.010864 379.284153,405.444409 C374.250016,404.877955 369.736653,408.468545 369.170198,413.475273 C362.336198,472.815955 340.482016,530.192318 302.365107,588.884318 C299.615062,593.123591 300.821062,598.779 305.051198,601.529045 C306.595243,602.524909 308.322016,603 310.02138,603 C313.008971,603 315.960016,601.538182 317.695925,598.842955 M364.154334,593.342864 C422.471743,493.400182 439.337471,393.567136 417.209198,279.161591 C410.713243,245.622 390.001107,216.440455 360.408425,199.117909 C356.059516,196.559727 350.458925,198.021545 347.919016,202.379591 C345.369971,206.737636 346.831789,212.329091 351.180698,214.878136 C376.241743,229.551136 393.765289,254.246727 399.274516,282.633409 C420.498289,392.434227 404.345198,488.238136 348.384971,584.133409 C345.854198,588.500591 347.325153,594.092045 351.664925,596.622818 C353.108471,597.481636 354.698198,597.8745 356.269653,597.8745 C359.394289,597.8745 362.454971,596.275636 364.154334,593.342864 M133.24188,542.060455 C198.86838,461.167091 217.488289,401.214273 201.956471,320.869091 C196.849243,294.483273 202.312789,267.695455 217.351243,245.439273 C232.389698,223.173955 255.175789,208.108091 281.534198,202.991727 C290.542653,201.228409 299.889153,200.789864 308.943289,201.511636 C313.922607,201.913636 318.381153,198.167727 318.783153,193.142727 C319.194289,188.117727 315.44838,183.704864 310.414243,183.302864 C299.715562,182.434909 288.678834,182.983091 278.044107,185.047909 C246.898243,191.077909 219.964243,208.893818 202.203153,235.197409 C184.442062,261.491864 177.982653,293.149364 184.012653,324.322636 C198.36588,398.573864 180.760107,454.461 119.053107,530.521227 C115.873653,534.449864 116.467516,540.205773 120.387016,543.366955 C122.077243,544.737409 124.114653,545.422636 126.133789,545.422636 C128.801607,545.440909 131.43288,544.289727 133.24188,542.060455 M413.920107,578.624182 C427.588107,551.269909 438.597425,523.065955 446.646562,494.788909 C448.017016,489.9375 445.212153,484.885091 440.360743,483.5055 C435.500198,482.107636 430.447789,484.939909 429.077334,489.791318 C421.347971,516.981136 410.768062,544.107 397.593425,570.447136 C395.336743,574.9605 397.15488,580.451455 401.668243,582.708136 C402.993016,583.347682 404.381743,583.658318 405.752198,583.658318 C409.096107,583.676591 412.312107,581.840182 413.920107,578.624182 M457.537107,446.329636 C466.545562,391.283045 465.09288,334.317818 453.078562,272.217955 C438.96288,199.264091 374.871289,146.309727 300.693153,146.309727 C290.761925,146.309727 280.812425,147.269045 271.12788,149.160273 C230.388834,157.035818 195.168153,180.333545 171.943516,214.750227 C148.709743,249.148636 140.267743,290.5455 148.152425,331.321091 C152.13588,351.914455 153.204834,369.200455 151.523743,385.737273 C151.012107,390.762273 154.666653,395.239091 159.682516,395.759864 C164.780607,396.171 169.184334,392.616955 169.695971,387.591955 C171.578062,369.227864 170.42688,350.2425 166.096243,327.840136 C159.125198,291.861136 166.580471,255.333955 187.082471,224.973818 C207.575334,194.613682 238.648107,174.056864 274.608834,167.104091 C283.151334,165.432136 291.93138,164.591591 300.684016,164.591591 C366.146062,164.591591 422.691016,211.314955 435.14388,275.698909 C446.737925,335.642591 448.154062,390.497318 439.501925,443.387727 C438.688789,448.367045 442.050971,453.063136 447.048562,453.867136 C447.551062,453.9585 448.026153,453.995045 448.528653,453.995045 C452.923243,453.976773 456.806198,450.806455 457.537107,446.329636 M105.348562,518.397273 C129.541653,488.420864 146.361698,461.815773 156.749743,437.092773 C158.704925,432.433227 156.521334,427.079318 151.861789,425.124136 C147.193107,423.178091 141.857471,425.352545 139.902289,429.993818 C130.190334,453.117955 114.229107,478.2795 91.1232434,506.922 C87.9529252,510.850636 88.574198,516.606545 92.493698,519.767727 C94.1839252,521.119909 96.212198,521.786864 98.222198,521.786864 C100.899153,521.786864 103.548698,520.626545 105.348562,518.397273 M80.3697434,491.097818 C139.97538,415.832455 138.422198,377.313545 130.208607,334.783773 C121.392016,289.229864 130.82988,242.954182 156.786289,204.490091 C166.10538,190.694182 177.297425,178.323545 190.070062,167.7345 C193.953016,164.509364 194.492062,158.753455 191.266925,154.8705 C188.041789,150.987545 182.28588,150.457636 178.402925,153.673636 C164.29638,165.368182 151.925743,179.027045 141.638198,194.2665 C112.950016,236.768864 102.525425,287.905091 112.264789,338.237318 C119.829698,377.368364 120.944334,410.423727 66.0439252,479.741318 C62.9101525,483.7065 63.5771071,489.444136 67.5422889,492.577909 C69.2233798,493.911818 71.2151071,494.551364 73.2068343,494.551364 C75.9020616,494.5605 78.5698798,493.372773 80.3697434,491.097818 M466.417653,551.4435 C502.122562,461.358955 509.276334,370.424727 488.947925,265.256045 C483.740198,238.276364 473.014107,213.224455 457.089425,190.785545 C454.165789,186.674182 448.473834,185.705727 444.344198,188.629364 C440.232834,191.553 439.255243,197.254091 442.188016,201.374591 C456.596062,221.666455 466.29888,244.333773 471.004107,268.737 C490.647289,370.324227 483.795016,458.015045 449.433153,544.728273 C447.578471,549.415227 449.871698,554.732591 454.567789,556.587273 C455.673289,557.025818 456.797062,557.226818 457.920834,557.226818 C461.557107,557.226818 465.001516,555.043227 466.417653,551.4435 M423.68688,166.400591 C426.90288,162.5085 426.345562,156.743455 422.435198,153.536591 C388.155562,125.286955 344.922289,109.727727 300.67488,109.727727 C288.395607,109.727727 276.107198,110.906318 264.165971,113.245227 C249.547789,116.0775 235.221971,120.618273 221.599653,126.757909 C217.004062,128.831864 214.94838,134.240591 217.022334,138.836182 C219.087153,143.431773 224.486743,145.487455 229.100607,143.4135 C241.434698,137.858591 254.408334,133.747227 267.656062,131.179909 C278.455243,129.069409 289.565062,128.000455 300.67488,128.000455 C340.683016,128.000455 379.804925,142.079591 410.813743,167.634 C412.513107,169.041 414.559653,169.726227 416.615334,169.726227 C419.255743,169.726227 421.859607,168.593318 423.68688,166.400591 M521.820562,295.607045 C526.809016,294.839591 530.235153,290.170909 529.458562,285.182455 C528.097243,276.292773 526.580607,267.348273 524.826425,258.312409 C504.068607,151.024091 409.808743,73.1548636 300.67488,73.1548636 C286.065834,73.1548636 271.438516,74.5618636 257.231471,77.3393182 C197.333471,88.9425 145.530289,123.194727 111.369425,173.791909 C93.1515161,200.771591 81.1097889,230.601818 75.5731525,262.442045 C74.705198,267.412227 78.0399707,272.144864 83.0101525,273.012818 C88.0351525,273.880773 92.7129707,270.546 93.5809252,265.575818 C98.6698798,236.284636 109.752289,208.848136 126.50838,184.0155 C157.937471,137.465727 205.592743,105.954409 260.712425,95.274 C273.795698,92.7249545 287.235289,91.4275909 300.67488,91.4275909 C401.07438,91.4275909 487.796743,163.074955 506.891743,261.784227 C508.591107,270.600818 510.071198,279.316909 511.395971,287.987318 C512.081198,292.500682 515.982425,295.725818 520.413562,295.725818 C520.879516,295.716682 521.345471,295.680136 521.820562,295.607045 M520.075516,506.693591 C534.794198,451.290682 539.700425,394.827955 535.113971,334.080273 C534.730243,329.046136 530.344789,325.300227 525.328925,325.656545 C520.285653,326.031136 516.512334,330.416591 516.896062,335.441591 C521.336334,394.124455 516.603698,448.604591 502.424062,501.988364 C501.126698,506.858045 504.041198,511.873909 508.91088,513.171273 C509.696607,513.372273 510.500607,513.472773 511.268062,513.472773 C515.306334,513.481909 518.997425,510.777545 520.075516,506.693591 M58.4607434,459.741818 C105.20238,397.998273 99.9215616,370.662273 94.3301071,341.7 C92.4480161,332.015455 91.2420161,322.038545 90.7303798,312.006818 C90.483698,306.954409 86.2718343,303.080591 81.1463343,303.345545 C76.112198,303.601364 72.2292434,307.895455 72.4850616,312.929591 C73.0332434,323.801864 74.3488798,334.655864 76.3862889,345.171818 C81.5940161,372.142364 85.7145161,393.448364 43.8882434,448.695955 C40.8458343,452.715955 41.6315616,458.453591 45.660698,461.486864 C47.3143798,462.738545 49.2512889,463.341545 51.1699252,463.341545 C53.9291071,463.368955 56.6608798,462.117273 58.4607434,459.741818 M39.9139252,423.141545 C65.5505616,385.380955 62.2614707,368.359909 58.4607434,348.661909 C45.9347889,283.930773 59.3561071,218.1855 96.2396071,163.531773 C133.132243,108.878045 189.083334,71.8849091 253.787062,59.3589545 C279.359743,54.3522273 306.138425,53.4568636 332.661289,56.9469545 C337.695425,57.5408182 342.263607,54.0781364 342.903153,49.0805455 C343.560971,44.0738182 340.052607,39.4873636 335.036743,38.8295455 C306.586107,35.0836364 277.770016,36.0429545 250.306107,41.4242727 C180.824062,54.8821364 120.725062,94.6161818 81.1006525,153.317318 C41.4853798,212.009318 27.068198,282.624273 40.5260616,352.142864 C43.9339252,369.776045 46.1814707,381.406636 24.8115161,412.881409 C21.9701071,417.056727 23.0664707,422.748682 27.2417889,425.580955 C28.8132434,426.649909 30.5948343,427.161545 32.3672889,427.161545 C35.2726525,427.152409 38.1414707,425.754545 39.9139252,423.141545 M561.600289,442.547182 C561.307925,442.547182 560.997289,442.528909 560.659243,442.510636 C555.64338,441.980727 551.997971,437.503909 552.491334,432.478909 C558.210698,376.3725 555.003834,318.274364 542.751971,254.822318 C525.831425,167.442136 462.78138,95.6577273 378.206062,67.4720455 C373.427743,65.8731818 370.833016,60.702 372.43188,55.9145455 C374.030743,51.1362273 379.16538,48.5323636 383.98938,50.1403636 C474.795698,80.4 542.523562,157.510909 560.686653,251.359636 C573.303971,316.593273 576.574789,376.445591 570.681834,434.342727 C570.225016,439.047955 566.241562,442.547182 561.600289,442.547182" id="path-2"></path>
    </defs>
    <g id="Page-1" stroke="none" stroke-width="1" fill="none" fill-rule="evenodd" sketch:type="MSPage">
        <g id="Desktop-HD-Copy" sketch:type="MSArtboardGroup" transform="translate(-419.000000, -2542.000000)">
            <g id="Section-4" sketch:type="MSLayerGroup" transform="translate(-88.000000, 2431.000000)">
                <g id="icon-copy-3">
                    <g id="e83a5110123933.5624908b172d7" transform="translate(507.000000, 111.000000)">
                        <mask id="mask-3" sketch:name="Mask Copy" fill="white">
                            <use xlink:href="#path-2"></use>
                        </mask>
                        <use id="Mask-Copy" fill="url(#linearGradient-1)" sketch:type="MSShapeGroup" xlink:href="#path-2"></use>
                    </g>
                </g>
            </g>
        </g>
    </g>
</svg>