<?xml version="1.0" encoding="UTF-8" standalone="no"?>
<svg width="82px" height="59px" viewBox="0 0 82 59" version="1.1" xmlns="http://www.w3.org/2000/svg" xmlns:xlink="http://www.w3.org/1999/xlink">
    <!-- Generator: Sketch 3.8.3 (29802) - http://www.bohemiancoding.com/sketch -->
    <title>noun_323195_cc</title>
    <desc>Created with Sketch.</desc>
    <defs></defs>
    <g id="error" stroke="none" stroke-width="1" fill="none" fill-rule="evenodd">
        <g id="Desktop-HD-Copy-14" transform="translate(-740.000000, -460.000000)">
            <g id="noun_323195_cc" transform="translate(740.000000, 460.000000)">
                <g id="Group">
                    <g id="error">
                        <path d="M13.8,16.6 C15.8,15.4 17.7,14 19.7,12.7 C20.6,14.2 21.5,15.7 22.5,17.1 C23.3,18.3 28.4,14.5 27.4,13.2 C26.4,11.9 25.4,10.6 24.4,9.3 C27.3,7.1 30.2,4.9 33.1,2.8 C35.3,1.2 34.3,-0.2 32.1,1.5 C29.2,3.7 26.3,5.8 23.4,8 C23.1,7.7 22.9,7.3 22.6,7 C21.1,5.2 19.7,3 17.6,1.9 C17,1.5 15.1,3.2 15.2,3.8 C15.6,6.2 17.2,8.3 18.4,10.4 C18.6,10.7 18.8,11.1 19,11.4 C17.2,12.8 15.4,14.3 13.7,15.8 C12.8,16.4 12.6,17.4 13.8,16.6 L13.8,16.6 Z" id="eye-2" fill="#3A3D42"></path>
                        <path d="M46.8,17.7 C46.8,18.1 47.6,17.6 47.7,17.6 C50.5,15.9 52.6,13.1 54.8,10.7 L54.8,10.7 C56.2,12 57.6,13.4 59.1,14.7 C60.4,15.8 64.5,11.8 63.6,11.1 C61.8,9.7 60,8.3 58.2,7 C59.5,5.6 60.8,4.1 62.1,2.7 C62.7,2 63.3,0.9 62,0.8 C60.8,0.7 59,2.4 58.3,3.2 C57.6,4 56.9,4.8 56.2,5.6 C56.1,5.6 56.1,5.5 56,5.5 C53.7,3.9 51.2,1.4 48.4,1.2 C48,1.2 47.2,1.7 47.2,2.1 C47.4,4.6 50.5,6.7 52.2,8.4 C52.5,8.7 52.7,8.9 53,9.2 C52.4,10 51.7,10.7 51.1,11.5 C50,13.1 46.9,15.5 46.8,17.7 L46.8,17.7 Z" id="eye-1" fill="#3A3D42"></path>
                        <path d="M40.3,40.8 C33.7,41.3 27.1,41.7 20.5,42.3 C14.4,42.8 7.8,42.5 2.1,45.1 C1.8,45.2 0.8,45.9 1,46.4 C2.2,48.1 4,47.5 6,47.5 C9.2,47.4 12.4,47.3 15.6,47.2 C20.2,47 27.8253333,46.1593092 31.0363471,46.1593092 C34.2473609,46.1593092 38.6088225,46.6000002 38.6088225,46.6000002 C43.1027559,45.3475926 47.3089919,45.6673406 48.0251014,45.5514778 C48.8195289,45.4229434 67,44.4 75.4,44.3 C78.1,44.3 83.9,37.4 80.9,37.7 C67.4,39.1 53.8,39.8 40.3,40.8 Z" id="mouth" fill="#3A3D42"></path>
                        <path d="M49.1831789,46.0041931 C48.8321307,49.5146758 48.6566065,54.0783033 46.7258411,57.0622136 C44.4440273,60.5726962 39.5293515,58.6419308 36.7209654,56.5356412 C33.0349586,53.727255 31.1041931,49.865724 29.7,45.6531448 C31.1041931,45.6531448 32.332862,45.4776207 33.7370551,45.4776207 C39.0027791,45.3020965 44.4440273,44.9510483 49.7097513,44.6 C49.3587031,45.1265724 49.1831789,45.6531448 49.1831789,46.0041931 L49.1831789,46.0041931 Z" id="tongue" fill="#F07D7D"></path>
                    </g>
                </g>
            </g>
        </g>
    </g>
</svg>
