<?xml version="1.0" encoding="UTF-8" standalone="no"?>
<svg width="100px" height="68px" viewBox="0 0 100 68" version="1.1" xmlns="http://www.w3.org/2000/svg" xmlns:xlink="http://www.w3.org/1999/xlink">
    <!-- Generator: Sketch 3.8.3 (29802) - http://www.bohemiancoding.com/sketch -->
    <title>fist-bump</title>
    <desc>Created with Sketch.</desc>
    <defs></defs>
    <g id="Page-1" stroke="none" stroke-width="1" fill="none" fill-rule="evenodd">
        <g id="Desktop-HD-Copy-14" transform="translate(-850.000000, -436.000000)">
            <g id="noun_16567_cc" transform="translate(849.000000, 436.000000)">
                <g id="Group">
                    <g id="fist-bump">
                        <path d="M98.998,57.681 C98.671,57.681 98.338,57.601 98.031,57.431 C87.696,51.709 74.867,46.156 72.17,47.182 C59.073,52.129 51.957,46.75 50.733,45.694 C46.113,42.708 47.651,37.857 48.395,35.512 C48.55,35.023 48.697,34.56 48.765,34.232 C48.835,33.894 48.917,33.562 49.003,33.224 C49.337,31.896 49.627,30.748 49.079,28.374 C48.645,26.49 48.885,25.005 49.794,23.961 C51.113,22.444 53.179,22.627 54.065,22.705 C54.112,22.709 54.156,22.714 54.196,22.717 C54.252,20.796 55.938,19.424 57.523,18.78 C63.348,15.858 69.248,21.922 73.989,26.801 C75.75,28.613 77.414,30.324 78.65,31.126 C82.494,33.618 94.889,36.165 99.341,36.936 C100.43,37.124 101.159,38.16 100.971,39.248 C100.783,40.337 99.745,41.061 98.659,40.878 C96.937,40.58 81.694,37.868 76.474,34.484 C74.859,33.438 73.125,31.654 71.12,29.59 C67.276,25.635 62.496,20.71 59.266,22.382 C59.203,22.415 59.137,22.445 59.07,22.47 C58.928,22.528 58.769,22.61 58.623,22.699 C59.522,23.156 61.163,23.713 62.74,24.074 C62.918,24.113 63.029,24.138 63.058,24.144 C64.131,24.386 64.808,25.449 64.572,26.523 C64.338,27.597 63.281,28.277 62.202,28.051 C62.024,28.013 61.849,27.975 61.678,27.935 C59.824,27.534 55.985,26.772 54.173,26.72 C54.053,26.717 53.896,26.705 53.714,26.689 C53.537,26.673 53.133,26.636 52.867,26.659 C52.865,26.815 52.885,27.076 52.976,27.474 C53.741,30.788 53.264,32.68 52.881,34.2 C52.81,34.48 52.74,34.756 52.683,35.037 C52.573,35.569 52.396,36.128 52.208,36.72 C51.239,39.776 51.134,41.239 52.994,42.391 C53.116,42.466 53.229,42.554 53.332,42.653 C53.549,42.854 59.115,47.839 70.756,43.439 C76.425,41.303 94.549,50.929 99.969,53.93 C100.936,54.465 101.285,55.683 100.75,56.649 C100.385,57.309 99.702,57.681 98.998,57.681 L98.998,57.681 Z" id="right-hand" fill="#3A3D42"></path>
                        <path d="M40.427,51.018 C37.805,51.018 34.813,50.623 32.291,49.625 C29.349,48.46 27.337,46.657 26.313,44.267 C26.265,44.157 26.153,43.895 25.572,43.668 C21.685,42.153 10.168,46.114 3.819,48.965 C2.813,49.421 1.629,48.969 1.175,47.96 C0.722,46.952 1.172,45.769 2.18,45.316 C4.017,44.491 20.323,37.331 27.025,39.941 C28.427,40.488 29.452,41.439 29.989,42.691 C30.578,44.066 31.847,45.147 33.762,45.905 C37.928,47.554 43.32,47.011 44.429,46.528 C45.387,46.109 47.328,43.419 47.529,42.232 C47.613,41.738 47.358,40.635 47.133,39.663 C46.592,37.326 45.92,34.418 47.533,32 C48.81,30.084 48.118,27.591 47.609,27.229 C47.164,27.047 45.817,27.132 44.158,27.399 L39.87,28.352 C38.809,28.587 37.762,27.939 37.497,26.89 C37.232,25.841 37.849,24.771 38.89,24.476 C39.968,24.17 41.746,23.711 43.6,23.425 L43.846,23.37 C43.735,23.154 43.45,22.739 42.731,22.14 C40.542,20.317 39.516,20.031 32.508,26.083 C25.439,32.189 5.276,32.365 3,32.365 C1.896,32.365 1,31.47 1,30.365 C1,29.261 1.895,28.365 3,28.365 C8.773,28.364 24.857,27.407 29.895,23.056 C36.04,17.749 40.071,14.718 45.293,19.068 C46.928,20.431 47.804,21.833 47.906,23.246 C48.539,23.329 49.101,23.485 49.552,23.734 C50.723,24.379 51.595,25.666 52.008,27.356 C52.584,29.713 52.155,32.279 50.861,34.22 C50.207,35.2 50.645,37.093 51.031,38.762 C51.37,40.23 51.691,41.616 51.473,42.9 C51.082,45.217 48.373,49.171 46.033,50.194 C44.896,50.689 42.815,51.018 40.427,51.018 L40.427,51.018 Z" id="left-hand" fill="#3A3D42"></path>
                        <g id="spark-6" transform="translate(53.000000, 1.000000)">
                            <path d="M2.604,12.591 L10.838,2.219" id="Shape" fill="#000000"></path>
                            <path d="M2.603,14.591 C2.166,14.591 1.728,14.449 1.361,14.157 C0.496,13.47 0.351,12.212 1.038,11.347 L9.272,0.975 C9.959,0.109 11.218,-0.034 12.082,0.652 C12.947,1.339 13.092,2.597 12.405,3.462 L4.17,13.834 C3.775,14.332 3.191,14.591 2.603,14.591 L2.603,14.591 Z" id="Shape" fill="#57EEBF"></path>
                        </g>
                        <g id="spark-5" transform="translate(47.000000, 0.000000)">
                            <path d="M2.806,12.37 L2.806,2" id="Shape" fill="#000000"></path>
                            <path d="M2.806,14.37 C1.702,14.37 0.806,13.474 0.806,12.37 L0.806,2 C0.806,0.896 1.702,0 2.806,0 C3.91,0 4.806,0.896 4.806,2 L4.806,12.37 C4.806,13.475 3.91,14.37 2.806,14.37 L2.806,14.37 Z" id="Shape" fill="#57EEBF"></path>
                        </g>
                        <g id="spark-4" transform="translate(35.000000, 2.000000)">
                            <path d="M9.623,11.591 L2.606,2.44" id="Shape" fill="#000000"></path>
                            <path d="M9.624,13.591 C9.023,13.591 8.429,13.321 8.035,12.808 L1.019,3.657 C0.347,2.781 0.513,1.525 1.39,0.853 C2.266,0.183 3.522,0.347 4.194,1.224 L11.21,10.375 C11.882,11.251 11.716,12.507 10.839,13.179 C10.477,13.456 10.048,13.591 9.624,13.591 L9.624,13.591 Z" id="Shape" fill="#57EEBF"></path>
                        </g>
                        <g id="spark-3" transform="translate(36.000000, 51.000000)">
                            <path d="M9,2.409 L2,11" id="Shape" fill="#000000"></path>
                            <path d="M1.999,13 C1.555,13 1.108,12.853 0.737,12.551 C-0.119,11.853 -0.248,10.593 0.45,9.737 L7.45,1.146 C8.148,0.292 9.408,0.165 10.263,0.859 C11.119,1.557 11.248,2.817 10.55,3.673 L3.55,12.264 C3.155,12.748 2.579,13 1.999,13 L1.999,13 Z" id="Shape" fill="#57EEBF"></path>
                        </g>
                        <g id="spark-2" transform="translate(48.000000, 52.000000)">
                            <path d="M2,2.63 L2,14" id="Shape" fill="#000000"></path>
                            <path d="M2,16 C0.896,16 0,15.104 0,14 L0,2.63 C0,1.526 0.896,0.63 2,0.63 C3.104,0.63 4,1.526 4,2.63 L4,14 C4,15.104 3.104,16 2,16 L2,16 Z" id="Shape" fill="#57EEBF"></path>
                        </g>
                        <g id="spark-1" transform="translate(53.000000, 51.000000)">
                            <path d="M2,2.409 L9,10" id="Shape" fill="#000000"></path>
                            <path d="M9.001,12 C8.461,12 7.924,11.783 7.529,11.355 L0.529,3.764 C-0.219,2.952 -0.168,1.687 0.644,0.938 C1.455,0.188 2.721,0.242 3.47,1.053 L10.47,8.644 C11.218,9.456 11.167,10.721 10.355,11.47 C9.972,11.825 9.485,12 9.001,12 L9.001,12 Z" id="Shape" fill="#57EEBF"></path>
                        </g>
                    </g>
                </g>
            </g>
        </g>
    </g>
</svg>