<?xml version="1.0" encoding="UTF-8" standalone="no"?>
<svg width="554px" height="633px" viewBox="0 0 554 633" version="1.1" xmlns="http://www.w3.org/2000/svg" xmlns:xlink="http://www.w3.org/1999/xlink">
    <!-- Generator: Sketch 3.8.3 (29802) - http://www.bohemiancoding.com/sketch -->
    <title>Group</title>
    <desc>Created with Sketch.</desc>
    <defs></defs>
    <g id="Page-1" stroke="none" stroke-width="1" fill="none" fill-rule="evenodd">
        <g id="Desktop-HD-Copy-17" transform="translate(-526.000000, -195.000000)" fill="#3A3D42">
            <g id="fp" transform="translate(525.000000, 195.000000)">
                <g id="Group">
                    <g id="curve-6" transform="translate(114.753118, 0.152229)">
                        <path d="M253.123143,17.5869655 C239.991554,12.5348388 226.641105,8.51307996 213.429931,5.65463982 C88.9782812,-21.3210581 2.51538985,59.0542902 1.65321482,59.871937 C0.519123045,60.9554852 0.214045726,62.6572542 0.917049982,64.0665317 C1.40782654,65.0570144 2.32305849,65.7417106 3.35766853,65.9743743 C3.78875604,66.0674398 4.24637202,66.0807349 4.703988,66.0009644 L252.426771,24.4605169 C254.018478,24.187968 255.232156,22.8916986 255.384694,21.2896426 C255.557129,19.6809391 254.622001,18.1653011 253.123143,17.5869655 L253.123143,17.5869655 Z" id="Shape"></path>
                    </g>
                    <g id="curve-5" transform="translate(12.837451, 79.922651)">
                        <path d="M0.107877929,146.828345 C0.107877929,146.828345 -0.349738049,53.9290405 280.407612,6.11996729 C280.407612,6.11996729 337.26474,13.8444032 370.644178,0.0374725704 C370.644178,0.0374725704 500.693333,1.36697961 523.063459,50.1731831 C523.063459,50.1731831 527.778893,62.1852792 461.378151,36.7983423 C461.378151,36.7983423 429.106277,39.5703645 458.108518,51.9613701 C458.108518,51.9613701 554.512951,85.0660954 539.882504,124.632225 C539.882504,124.632225 561.662372,129.132606 412.996868,69.0455356 C412.996868,69.0455356 290.123662,11.8833803 184.745977,59.8652895 C184.745977,59.8652895 104.444321,87.632044 62.2309049,113.889808 C62.237537,113.896456 12.616048,155.649624 0.107877929,146.828345 L0.107877929,146.828345 Z" id="Shape"></path>
                    </g>
                    <g id="curve-4" transform="translate(0.849308, 159.693074)">
                        <path d="M7.75861769,228.918757 C7.75861769,228.918757 -64.7370381,130.182917 253.670833,3.83321517 C253.670833,3.83321517 367.716693,-16.6212507 477.106808,52.2671567 C477.106808,52.2671567 579.43372,125.729068 527.497622,146.216772 C527.497622,146.216772 427.200138,18.251719 266.245324,35.8676873 C266.245324,35.8610398 48.3073726,114.388373 7.75861769,228.918757 L7.75861769,228.918757 Z" id="Shape"></path>
                    </g>
                    <g id="curve-3" transform="translate(203.703469, 332.404315)">
                        <path d="M0.392564372,252.026531 C0.392564372,252.026531 126.273471,215.616849 171.557973,116.222564 C171.557973,116.222564 201.271873,52.1293838 169.383032,31.5680389 C169.383032,31.5680389 118.370772,10.2758992 161.387651,0.255340143 C161.387651,0.255340143 236.694994,-1.62119224 206.653617,111.317569 C206.659796,111.317569 124.574298,297.137627 0.392564372,252.026531 L0.392564372,252.026531 Z" id="Shape"></path>
                    </g>
                    <g id="curve-2" transform="translate(28.135272, 236.477861)">
                        <path d="M255.959137,247.735564 C255.959137,247.735564 301.566531,229.343165 270.425369,261.641654 C270.425369,261.641654 117.359757,416.96176 5.74743409,274.286886 C5.74743409,274.286886 -54.6991848,90.1796346 244.966848,4.33133576 C244.966848,4.33133576 373.517389,-29.4039449 502.506743,107.450456 C502.506743,107.450456 549.847453,179.473301 485.349119,261.099192 C485.349119,261.099192 433.72266,326.649144 462.867218,241.409282 C462.867218,241.409282 500.217597,174.099994 460.709717,114.377844 C460.709717,114.377844 424.59533,76.3395195 442.594015,123.621692 C442.594015,123.621692 498.228308,201.956158 379.887504,327.11097 C379.887504,327.11097 342.844295,374.305176 256.229739,395.923025 C256.229739,395.923025 207.440943,404.177247 298.962902,347.270036 C298.962902,347.270036 457.798918,252.434459 410.107157,106.108962 C410.107157,106.108962 360.959997,3.90616273 199.571547,48.3514053 C199.571547,48.3514053 24.6530009,118.153088 38.0733936,248.981761 C38.06608,248.981761 70.9771248,351.70503 255.959137,247.735564 L255.959137,247.735564 Z" id="Shape"></path>
                    </g>
                    <g id="curve-1" transform="translate(101.488885, 314.749245)">
                        <path d="M230.772913,54.9437008 C190.807784,30.9394511 94.2906058,105.943591 94.2906058,105.943591 C39.2772067,129.429333 60.5464015,98.6246546 60.5464015,98.6246546 C70.9919836,72.7989803 127.570562,53.3283497 127.570562,53.3283497 C217.999458,35.0808656 207.149317,11.9673856 207.149317,11.9673856 C184.659813,-13.6588626 130.057605,13.5760892 130.057605,13.5760892 C-55.3896116,105.2456 12.4171385,174.885179 12.4171385,174.885179 C66.7739581,220.992483 196.5313,143.841189 196.5313,143.841189 C281.654504,80.3505803 230.772913,54.9437008 230.772913,54.9437008 L230.772913,54.9437008 Z M169.313098,125.254681 C169.313098,125.254681 94.6752685,171.946968 37.745188,153.506705 C37.745188,153.506705 19.7257299,141.055872 40.2587598,141.846929 C40.2587598,141.846929 123.843313,139.978971 150.378408,109.327186 C150.378408,109.327186 180.925932,70.9842032 201.32632,75.4048141 C201.332952,75.4114617 240.774143,87.6296314 169.313098,125.254681 L169.313098,125.254681 Z" id="Shape"></path>
                    </g>
                </g>
            </g>
        </g>
    </g>
</svg>